  0
SECTION
  2
BLOCKS
  0
ENDSEC
  0
SECTION
  2
ENTITIES
  0
LINE
  8
0
 10
19.936
 20
-316.873
 11
39.7933
 21
-314.996
  0
LINE
  8
0
 10
39.7933
 20
-314.996
 11
59.4936
 21
-311.876
  0
LINE
  8
0
 10
59.4936
 20
-311.876
 11
78.959
 21
-307.525
  0
LINE
  8
0
 10
78.959
 20
-307.525
 11
98.1129
 21
-301.96
  0
LINE
  8
0
 10
98.1129
 20
-301.96
 11
116.88
 21
-295.204
  0
LINE
  8
0
 10
116.88
 20
-295.204
 11
135.185
 21
-287.283
  0
LINE
  8
0
 10
135.185
 20
-287.283
 11
152.957
 21
-278.227
  0
LINE
  8
0
 10
152.957
 20
-278.227
 11
170.125
 21
-268.074
  0
LINE
  8
0
 10
170.125
 20
-268.074
 11
186.622
 21
-256.863
  0
LINE
  8
0
 10
186.622
 20
-256.863
 11
202.382
 21
-244.638
  0
LINE
  8
0
 10
202.382
 20
-244.638
 11
217.344
 21
-231.448
  0
LINE
  8
0
 10
217.344
 20
-231.448
 11
231.448
 21
-217.344
  0
LINE
  8
0
 10
231.448
 20
-217.344
 11
244.638
 21
-202.382
  0
LINE
  8
0
 10
244.638
 20
-202.382
 11
256.863
 21
-186.622
  0
LINE
  8
0
 10
256.863
 20
-186.622
 11
268.074
 21
-170.125
  0
LINE
  8
0
 10
268.074
 20
-170.125
 11
278.227
 21
-152.957
  0
LINE
  8
0
 10
278.227
 20
-152.957
 11
287.283
 21
-135.185
  0
LINE
  8
0
 10
287.283
 20
-135.185
 11
295.204
 21
-116.88
  0
LINE
  8
0
 10
295.204
 20
-116.88
 11
301.96
 21
-98.1129
  0
LINE
  8
0
 10
301.96
 20
-98.1129
 11
307.525
 21
-78.959
  0
LINE
  8
0
 10
307.525
 20
-78.959
 11
311.876
 21
-59.4936
  0
LINE
  8
0
 10
311.876
 20
-59.4936
 11
314.996
 21
-39.7933
  0
LINE
  8
0
 10
314.996
 20
-39.7933
 11
316.873
 21
-19.936
  0
LINE
  8
0
 10
316.873
 20
-19.936
 11
317.5
 21
0
  0
LINE
  8
0
 10
317.5
 20
0
 11
316.873
 21
19.936
  0
LINE
  8
0
 10
316.873
 20
19.936
 11
314.996
 21
39.7933
  0
LINE
  8
0
 10
314.996
 20
39.7933
 11
311.876
 21
59.4936
  0
LINE
  8
0
 10
311.876
 20
59.4936
 11
307.525
 21
78.959
  0
LINE
  8
0
 10
307.525
 20
78.959
 11
301.96
 21
98.1129
  0
LINE
  8
0
 10
301.96
 20
98.1129
 11
295.204
 21
116.88
  0
LINE
  8
0
 10
295.204
 20
116.88
 11
287.283
 21
135.185
  0
LINE
  8
0
 10
287.283
 20
135.185
 11
278.227
 21
152.957
  0
LINE
  8
0
 10
278.227
 20
152.957
 11
268.074
 21
170.125
  0
LINE
  8
0
 10
268.074
 20
170.125
 11
256.863
 21
186.622
  0
LINE
  8
0
 10
256.863
 20
186.622
 11
244.638
 21
202.382
  0
LINE
  8
0
 10
244.638
 20
202.382
 11
231.448
 21
217.344
  0
LINE
  8
0
 10
231.448
 20
217.344
 11
217.344
 21
231.448
  0
LINE
  8
0
 10
217.344
 20
231.448
 11
202.382
 21
244.638
  0
LINE
  8
0
 10
202.382
 20
244.638
 11
186.622
 21
256.863
  0
LINE
  8
0
 10
186.622
 20
256.863
 11
170.125
 21
268.074
  0
LINE
  8
0
 10
170.125
 20
268.074
 11
152.957
 21
278.227
  0
LINE
  8
0
 10
152.957
 20
278.227
 11
135.185
 21
287.283
  0
LINE
  8
0
 10
135.185
 20
287.283
 11
116.88
 21
295.204
  0
LINE
  8
0
 10
116.88
 20
295.204
 11
98.1129
 21
301.96
  0
LINE
  8
0
 10
98.1129
 20
301.96
 11
78.959
 21
307.525
  0
LINE
  8
0
 10
78.959
 20
307.525
 11
59.4936
 21
311.876
  0
LINE
  8
0
 10
59.4936
 20
311.876
 11
39.7933
 21
314.996
  0
LINE
  8
0
 10
39.7933
 20
314.996
 11
19.936
 21
316.873
  0
LINE
  8
0
 10
19.936
 20
316.873
 11
0
 21
317.5
  0
LINE
  8
0
 10
0
 20
317.5
 11
-19.936
 21
316.873
  0
LINE
  8
0
 10
-19.936
 20
316.873
 11
-39.7933
 21
314.996
  0
LINE
  8
0
 10
-39.7933
 20
314.996
 11
-59.4936
 21
311.876
  0
LINE
  8
0
 10
-59.4936
 20
311.876
 11
-78.959
 21
307.525
  0
LINE
  8
0
 10
-78.959
 20
307.525
 11
-98.1129
 21
301.96
  0
LINE
  8
0
 10
-98.1129
 20
301.96
 11
-116.88
 21
295.204
  0
LINE
  8
0
 10
-116.88
 20
295.204
 11
-135.185
 21
287.283
  0
LINE
  8
0
 10
-135.185
 20
287.283
 11
-152.957
 21
278.227
  0
LINE
  8
0
 10
-152.957
 20
278.227
 11
-170.125
 21
268.074
  0
LINE
  8
0
 10
-170.125
 20
268.074
 11
-186.622
 21
256.863
  0
LINE
  8
0
 10
-186.622
 20
256.863
 11
-202.382
 21
244.638
  0
LINE
  8
0
 10
-202.382
 20
244.638
 11
-217.344
 21
231.448
  0
LINE
  8
0
 10
-217.344
 20
231.448
 11
-231.448
 21
217.344
  0
LINE
  8
0
 10
-231.448
 20
217.344
 11
-244.638
 21
202.382
  0
LINE
  8
0
 10
-244.638
 20
202.382
 11
-256.863
 21
186.622
  0
LINE
  8
0
 10
-256.863
 20
186.622
 11
-268.074
 21
170.125
  0
LINE
  8
0
 10
-268.074
 20
170.125
 11
-278.227
 21
152.957
  0
LINE
  8
0
 10
-278.227
 20
152.957
 11
-287.283
 21
135.185
  0
LINE
  8
0
 10
-287.283
 20
135.185
 11
-295.204
 21
116.88
  0
LINE
  8
0
 10
-295.204
 20
116.88
 11
-301.96
 21
98.1129
  0
LINE
  8
0
 10
-301.96
 20
98.1129
 11
-307.525
 21
78.959
  0
LINE
  8
0
 10
-307.525
 20
78.959
 11
-311.876
 21
59.4936
  0
LINE
  8
0
 10
-311.876
 20
59.4936
 11
-314.996
 21
39.7933
  0
LINE
  8
0
 10
-314.996
 20
39.7933
 11
-316.873
 21
19.936
  0
LINE
  8
0
 10
-316.873
 20
19.936
 11
-317.5
 21
0
  0
LINE
  8
0
 10
-317.5
 20
0
 11
-316.873
 21
-19.936
  0
LINE
  8
0
 10
-316.873
 20
-19.936
 11
-314.996
 21
-39.7933
  0
LINE
  8
0
 10
-314.996
 20
-39.7933
 11
-311.876
 21
-59.4936
  0
LINE
  8
0
 10
-311.876
 20
-59.4936
 11
-307.525
 21
-78.959
  0
LINE
  8
0
 10
-307.525
 20
-78.959
 11
-301.96
 21
-98.1129
  0
LINE
  8
0
 10
-301.96
 20
-98.1129
 11
-295.204
 21
-116.88
  0
LINE
  8
0
 10
-295.204
 20
-116.88
 11
-287.283
 21
-135.185
  0
LINE
  8
0
 10
-287.283
 20
-135.185
 11
-278.227
 21
-152.957
  0
LINE
  8
0
 10
-278.227
 20
-152.957
 11
-268.074
 21
-170.125
  0
LINE
  8
0
 10
-268.074
 20
-170.125
 11
-256.863
 21
-186.622
  0
LINE
  8
0
 10
-256.863
 20
-186.622
 11
-244.638
 21
-202.382
  0
LINE
  8
0
 10
-244.638
 20
-202.382
 11
-231.448
 21
-217.344
  0
LINE
  8
0
 10
-231.448
 20
-217.344
 11
-217.344
 21
-231.448
  0
LINE
  8
0
 10
-217.344
 20
-231.448
 11
-202.382
 21
-244.638
  0
LINE
  8
0
 10
-202.382
 20
-244.638
 11
-186.622
 21
-256.863
  0
LINE
  8
0
 10
-186.622
 20
-256.863
 11
-170.125
 21
-268.074
  0
LINE
  8
0
 10
-170.125
 20
-268.074
 11
-152.957
 21
-278.227
  0
LINE
  8
0
 10
-152.957
 20
-278.227
 11
-135.185
 21
-287.283
  0
LINE
  8
0
 10
-135.185
 20
-287.283
 11
-116.88
 21
-295.204
  0
LINE
  8
0
 10
-116.88
 20
-295.204
 11
-98.1129
 21
-301.96
  0
LINE
  8
0
 10
-98.1129
 20
-301.96
 11
-78.959
 21
-307.525
  0
LINE
  8
0
 10
-78.959
 20
-307.525
 11
-59.4936
 21
-311.876
  0
LINE
  8
0
 10
-59.4936
 20
-311.876
 11
-39.7933
 21
-314.996
  0
LINE
  8
0
 10
-39.7933
 20
-314.996
 11
-19.936
 21
-316.873
  0
LINE
  8
0
 10
-19.936
 20
-316.873
 11
0
 21
-317.5
  0
LINE
  8
0
 10
0
 20
-317.5
 11
19.936
 21
-316.873
  0
LINE
  8
0
 10
-0.156967
 20
227.505
 11
-0.313324
 21
227.52
  0
LINE
  8
0
 10
-0.313324
 20
227.52
 11
-0.468445
 21
227.544
  0
LINE
  8
0
 10
-0.468445
 20
227.544
 11
-0.621719
 21
227.579
  0
LINE
  8
0
 10
-0.621719
 20
227.579
 11
-0.772537
 21
227.622
  0
LINE
  8
0
 10
-0.772537
 20
227.622
 11
-0.920303
 21
227.676
  0
LINE
  8
0
 10
-0.920303
 20
227.676
 11
-1.06444
 21
227.738
  0
LINE
  8
0
 10
-1.06444
 20
227.738
 11
-1.20438
 21
227.809
  0
LINE
  8
0
 10
-1.20438
 20
227.809
 11
-1.33955
 21
227.889
  0
LINE
  8
0
 10
-1.33955
 20
227.889
 11
-1.46945
 21
227.977
  0
LINE
  8
0
 10
-1.46945
 20
227.977
 11
-1.59355
 21
228.074
  0
LINE
  8
0
 10
-1.59355
 20
228.074
 11
-1.71136
 21
228.178
  0
LINE
  8
0
 10
-1.71136
 20
228.178
 11
-1.82242
 21
228.289
  0
LINE
  8
0
 10
-1.82242
 20
228.289
 11
-1.92627
 21
228.406
  0
LINE
  8
0
 10
-1.92627
 20
228.406
 11
-2.02254
 21
228.531
  0
LINE
  8
0
 10
-2.02254
 20
228.531
 11
-2.11081
 21
228.66
  0
LINE
  8
0
 10
-2.11081
 20
228.66
 11
-2.19077
 21
228.796
  0
LINE
  8
0
 10
-2.19077
 20
228.796
 11
-2.26205
 21
228.936
  0
LINE
  8
0
 10
-2.26205
 20
228.936
 11
-2.32443
 21
229.08
  0
LINE
  8
0
 10
-2.32443
 20
229.08
 11
-2.37764
 21
229.227
  0
LINE
  8
0
 10
-2.37764
 20
229.227
 11
-2.42145
 21
229.378
  0
LINE
  8
0
 10
-2.42145
 20
229.378
 11
-2.4557
 21
229.532
  0
LINE
  8
0
 10
-2.4557
 20
229.532
 11
-2.48029
 21
229.687
  0
LINE
  8
0
 10
-2.48029
 20
229.687
 11
-2.49506
 21
229.843
  0
LINE
  8
0
 10
-2.49506
 20
229.843
 11
-2.5
 21
230
  0
LINE
  8
0
 10
-2.5
 20
230
 11
-2.49506
 21
230.157
  0
LINE
  8
0
 10
-2.49506
 20
230.157
 11
-2.48029
 21
230.313
  0
LINE
  8
0
 10
-2.48029
 20
230.313
 11
-2.4557
 21
230.468
  0
LINE
  8
0
 10
-2.4557
 20
230.468
 11
-2.42145
 21
230.622
  0
LINE
  8
0
 10
-2.42145
 20
230.622
 11
-2.37764
 21
230.773
  0
LINE
  8
0
 10
-2.37764
 20
230.773
 11
-2.32443
 21
230.92
  0
LINE
  8
0
 10
-2.32443
 20
230.92
 11
-2.26205
 21
231.064
  0
LINE
  8
0
 10
-2.26205
 20
231.064
 11
-2.19077
 21
231.204
  0
LINE
  8
0
 10
-2.19077
 20
231.204
 11
-2.11081
 21
231.34
  0
LINE
  8
0
 10
-2.11081
 20
231.34
 11
-2.02254
 21
231.469
  0
LINE
  8
0
 10
-2.02254
 20
231.469
 11
-1.92627
 21
231.594
  0
LINE
  8
0
 10
-1.92627
 20
231.594
 11
-1.82242
 21
231.711
  0
LINE
  8
0
 10
-1.82242
 20
231.711
 11
-1.71136
 21
231.822
  0
LINE
  8
0
 10
-1.71136
 20
231.822
 11
-1.59355
 21
231.926
  0
LINE
  8
0
 10
-1.59355
 20
231.926
 11
-1.46945
 21
232.023
  0
LINE
  8
0
 10
-1.46945
 20
232.023
 11
-1.33955
 21
232.111
  0
LINE
  8
0
 10
-1.33955
 20
232.111
 11
-1.20438
 21
232.191
  0
LINE
  8
0
 10
-1.20438
 20
232.191
 11
-1.06444
 21
232.262
  0
LINE
  8
0
 10
-1.06444
 20
232.262
 11
-0.920303
 21
232.324
  0
LINE
  8
0
 10
-0.920303
 20
232.324
 11
-0.772537
 21
232.378
  0
LINE
  8
0
 10
-0.772537
 20
232.378
 11
-0.621719
 21
232.421
  0
LINE
  8
0
 10
-0.621719
 20
232.421
 11
-0.468445
 21
232.456
  0
LINE
  8
0
 10
-0.468445
 20
232.456
 11
-0.313324
 21
232.48
  0
LINE
  8
0
 10
-0.313324
 20
232.48
 11
-0.156967
 21
232.495
  0
LINE
  8
0
 10
-0.156967
 20
232.495
 11
0
 21
232.5
  0
LINE
  8
0
 10
0
 20
232.5
 11
0.156967
 21
232.495
  0
LINE
  8
0
 10
0.156967
 20
232.495
 11
0.313324
 21
232.48
  0
LINE
  8
0
 10
0.313324
 20
232.48
 11
0.468445
 21
232.456
  0
LINE
  8
0
 10
0.468445
 20
232.456
 11
0.621719
 21
232.421
  0
LINE
  8
0
 10
0.621719
 20
232.421
 11
0.772537
 21
232.378
  0
LINE
  8
0
 10
0.772537
 20
232.378
 11
0.920303
 21
232.324
  0
LINE
  8
0
 10
0.920303
 20
232.324
 11
1.06444
 21
232.262
  0
LINE
  8
0
 10
1.06444
 20
232.262
 11
1.20438
 21
232.191
  0
LINE
  8
0
 10
1.20438
 20
232.191
 11
1.33955
 21
232.111
  0
LINE
  8
0
 10
1.33955
 20
232.111
 11
1.46945
 21
232.023
  0
LINE
  8
0
 10
1.46945
 20
232.023
 11
1.59355
 21
231.926
  0
LINE
  8
0
 10
1.59355
 20
231.926
 11
1.71136
 21
231.822
  0
LINE
  8
0
 10
1.71136
 20
231.822
 11
1.82242
 21
231.711
  0
LINE
  8
0
 10
1.82242
 20
231.711
 11
1.92627
 21
231.594
  0
LINE
  8
0
 10
1.92627
 20
231.594
 11
2.02254
 21
231.469
  0
LINE
  8
0
 10
2.02254
 20
231.469
 11
2.11081
 21
231.34
  0
LINE
  8
0
 10
2.11081
 20
231.34
 11
2.19077
 21
231.204
  0
LINE
  8
0
 10
2.19077
 20
231.204
 11
2.26205
 21
231.064
  0
LINE
  8
0
 10
2.26205
 20
231.064
 11
2.32443
 21
230.92
  0
LINE
  8
0
 10
2.32443
 20
230.92
 11
2.37764
 21
230.773
  0
LINE
  8
0
 10
2.37764
 20
230.773
 11
2.42145
 21
230.622
  0
LINE
  8
0
 10
2.42145
 20
230.622
 11
2.4557
 21
230.468
  0
LINE
  8
0
 10
2.4557
 20
230.468
 11
2.48029
 21
230.313
  0
LINE
  8
0
 10
2.48029
 20
230.313
 11
2.49506
 21
230.157
  0
LINE
  8
0
 10
2.49506
 20
230.157
 11
2.5
 21
230
  0
LINE
  8
0
 10
2.5
 20
230
 11
2.49506
 21
229.843
  0
LINE
  8
0
 10
2.49506
 20
229.843
 11
2.48029
 21
229.687
  0
LINE
  8
0
 10
2.48029
 20
229.687
 11
2.4557
 21
229.532
  0
LINE
  8
0
 10
2.4557
 20
229.532
 11
2.42145
 21
229.378
  0
LINE
  8
0
 10
2.42145
 20
229.378
 11
2.37764
 21
229.227
  0
LINE
  8
0
 10
2.37764
 20
229.227
 11
2.32443
 21
229.08
  0
LINE
  8
0
 10
2.32443
 20
229.08
 11
2.26205
 21
228.936
  0
LINE
  8
0
 10
2.26205
 20
228.936
 11
2.19077
 21
228.796
  0
LINE
  8
0
 10
2.19077
 20
228.796
 11
2.11081
 21
228.66
  0
LINE
  8
0
 10
2.11081
 20
228.66
 11
2.02254
 21
228.531
  0
LINE
  8
0
 10
2.02254
 20
228.531
 11
1.92627
 21
228.406
  0
LINE
  8
0
 10
1.92627
 20
228.406
 11
1.82242
 21
228.289
  0
LINE
  8
0
 10
1.82242
 20
228.289
 11
1.71136
 21
228.178
  0
LINE
  8
0
 10
1.71136
 20
228.178
 11
1.59355
 21
228.074
  0
LINE
  8
0
 10
1.59355
 20
228.074
 11
1.46945
 21
227.977
  0
LINE
  8
0
 10
1.46945
 20
227.977
 11
1.33955
 21
227.889
  0
LINE
  8
0
 10
1.33955
 20
227.889
 11
1.20438
 21
227.809
  0
LINE
  8
0
 10
1.20438
 20
227.809
 11
1.06444
 21
227.738
  0
LINE
  8
0
 10
1.06444
 20
227.738
 11
0.920303
 21
227.676
  0
LINE
  8
0
 10
0.920303
 20
227.676
 11
0.772537
 21
227.622
  0
LINE
  8
0
 10
0.772537
 20
227.622
 11
0.621719
 21
227.579
  0
LINE
  8
0
 10
0.621719
 20
227.579
 11
0.468445
 21
227.544
  0
LINE
  8
0
 10
0.468445
 20
227.544
 11
0.313324
 21
227.52
  0
LINE
  8
0
 10
0.313324
 20
227.52
 11
0.156967
 21
227.505
  0
LINE
  8
0
 10
0.156967
 20
227.505
 11
0
 21
227.5
  0
LINE
  8
0
 10
0
 20
227.5
 11
-0.156967
 21
227.505
  0
LINE
  8
0
 10
-13.8139
 20
-219.566
 11
-27.5733
 21
-218.265
  0
LINE
  8
0
 10
-27.5733
 20
-218.265
 11
-41.2239
 21
-216.103
  0
LINE
  8
0
 10
-41.2239
 20
-216.103
 11
-54.7118
 21
-213.088
  0
LINE
  8
0
 10
-54.7118
 20
-213.088
 11
-67.9837
 21
-209.232
  0
LINE
  8
0
 10
-67.9837
 20
-209.232
 11
-80.9874
 21
-204.551
  0
LINE
  8
0
 10
-80.9874
 20
-204.551
 11
-93.6714
 21
-199.062
  0
LINE
  8
0
 10
-93.6714
 20
-199.062
 11
-105.986
 21
-192.787
  0
LINE
  8
0
 10
-105.986
 20
-192.787
 11
-117.882
 21
-185.752
  0
LINE
  8
0
 10
-117.882
 20
-185.752
 11
-129.313
 21
-177.984
  0
LINE
  8
0
 10
-129.313
 20
-177.984
 11
-140.233
 21
-169.513
  0
LINE
  8
0
 10
-140.233
 20
-169.513
 11
-150.6
 21
-160.373
  0
LINE
  8
0
 10
-150.6
 20
-160.373
 11
-160.373
 21
-150.6
  0
LINE
  8
0
 10
-160.373
 20
-150.6
 11
-169.513
 21
-140.233
  0
LINE
  8
0
 10
-169.513
 20
-140.233
 11
-177.984
 21
-129.313
  0
LINE
  8
0
 10
-177.984
 20
-129.313
 11
-185.752
 21
-117.882
  0
LINE
  8
0
 10
-185.752
 20
-117.882
 11
-192.787
 21
-105.986
  0
LINE
  8
0
 10
-192.787
 20
-105.986
 11
-199.062
 21
-93.6714
  0
LINE
  8
0
 10
-199.062
 20
-93.6714
 11
-204.551
 21
-80.9874
  0
LINE
  8
0
 10
-204.551
 20
-80.9874
 11
-209.232
 21
-67.9837
  0
LINE
  8
0
 10
-209.232
 20
-67.9837
 11
-213.088
 21
-54.7118
  0
LINE
  8
0
 10
-213.088
 20
-54.7118
 11
-216.103
 21
-41.2239
  0
LINE
  8
0
 10
-216.103
 20
-41.2239
 11
-218.265
 21
-27.5733
  0
LINE
  8
0
 10
-218.265
 20
-27.5733
 11
-219.566
 21
-13.8139
  0
LINE
  8
0
 10
-219.566
 20
-13.8139
 11
-220
 21
0
  0
LINE
  8
0
 10
-220
 20
0
 11
-219.566
 21
13.8139
  0
LINE
  8
0
 10
-219.566
 20
13.8139
 11
-218.265
 21
27.5733
  0
LINE
  8
0
 10
-218.265
 20
27.5733
 11
-216.103
 21
41.2239
  0
LINE
  8
0
 10
-216.103
 20
41.2239
 11
-213.088
 21
54.7118
  0
LINE
  8
0
 10
-213.088
 20
54.7118
 11
-209.232
 21
67.9837
  0
LINE
  8
0
 10
-209.232
 20
67.9837
 11
-204.551
 21
80.9874
  0
LINE
  8
0
 10
-204.551
 20
80.9874
 11
-199.062
 21
93.6714
  0
LINE
  8
0
 10
-199.062
 20
93.6714
 11
-192.787
 21
105.986
  0
LINE
  8
0
 10
-192.787
 20
105.986
 11
-185.752
 21
117.882
  0
LINE
  8
0
 10
-185.752
 20
117.882
 11
-177.984
 21
129.313
  0
LINE
  8
0
 10
-177.984
 20
129.313
 11
-169.513
 21
140.233
  0
LINE
  8
0
 10
-169.513
 20
140.233
 11
-160.373
 21
150.6
  0
LINE
  8
0
 10
-160.373
 20
150.6
 11
-150.6
 21
160.373
  0
LINE
  8
0
 10
-150.6
 20
160.373
 11
-140.233
 21
169.513
  0
LINE
  8
0
 10
-140.233
 20
169.513
 11
-129.313
 21
177.984
  0
LINE
  8
0
 10
-129.313
 20
177.984
 11
-117.882
 21
185.752
  0
LINE
  8
0
 10
-117.882
 20
185.752
 11
-105.986
 21
192.787
  0
LINE
  8
0
 10
-105.986
 20
192.787
 11
-93.6714
 21
199.062
  0
LINE
  8
0
 10
-93.6714
 20
199.062
 11
-80.9874
 21
204.551
  0
LINE
  8
0
 10
-80.9874
 20
204.551
 11
-67.9837
 21
209.232
  0
LINE
  8
0
 10
-67.9837
 20
209.232
 11
-54.7118
 21
213.088
  0
LINE
  8
0
 10
-54.7118
 20
213.088
 11
-41.2239
 21
216.103
  0
LINE
  8
0
 10
-41.2239
 20
216.103
 11
-27.5733
 21
218.265
  0
LINE
  8
0
 10
-27.5733
 20
218.265
 11
-13.8139
 21
219.566
  0
LINE
  8
0
 10
-13.8139
 20
219.566
 11
0
 21
220
  0
LINE
  8
0
 10
0
 20
220
 11
13.8139
 21
219.566
  0
LINE
  8
0
 10
13.8139
 20
219.566
 11
27.5733
 21
218.265
  0
LINE
  8
0
 10
27.5733
 20
218.265
 11
41.2239
 21
216.103
  0
LINE
  8
0
 10
41.2239
 20
216.103
 11
54.7118
 21
213.088
  0
LINE
  8
0
 10
54.7118
 20
213.088
 11
67.9837
 21
209.232
  0
LINE
  8
0
 10
67.9837
 20
209.232
 11
80.9874
 21
204.551
  0
LINE
  8
0
 10
80.9874
 20
204.551
 11
93.6714
 21
199.062
  0
LINE
  8
0
 10
93.6714
 20
199.062
 11
105.986
 21
192.787
  0
LINE
  8
0
 10
105.986
 20
192.787
 11
117.882
 21
185.752
  0
LINE
  8
0
 10
117.882
 20
185.752
 11
129.313
 21
177.984
  0
LINE
  8
0
 10
129.313
 20
177.984
 11
140.233
 21
169.513
  0
LINE
  8
0
 10
140.233
 20
169.513
 11
150.6
 21
160.373
  0
LINE
  8
0
 10
150.6
 20
160.373
 11
160.373
 21
150.6
  0
LINE
  8
0
 10
160.373
 20
150.6
 11
169.513
 21
140.233
  0
LINE
  8
0
 10
169.513
 20
140.233
 11
177.984
 21
129.313
  0
LINE
  8
0
 10
177.984
 20
129.313
 11
180
 21
126.346
  0
LINE
  8
0
 10
180
 20
126.346
 11
180
 21
-126.346
  0
LINE
  8
0
 10
180
 20
-126.346
 11
177.984
 21
-129.313
  0
LINE
  8
0
 10
177.984
 20
-129.313
 11
169.513
 21
-140.233
  0
LINE
  8
0
 10
169.513
 20
-140.233
 11
160.373
 21
-150.6
  0
LINE
  8
0
 10
160.373
 20
-150.6
 11
150.6
 21
-160.373
  0
LINE
  8
0
 10
150.6
 20
-160.373
 11
140.233
 21
-169.513
  0
LINE
  8
0
 10
140.233
 20
-169.513
 11
129.313
 21
-177.984
  0
LINE
  8
0
 10
129.313
 20
-177.984
 11
117.882
 21
-185.752
  0
LINE
  8
0
 10
117.882
 20
-185.752
 11
105.986
 21
-192.787
  0
LINE
  8
0
 10
105.986
 20
-192.787
 11
93.6714
 21
-199.062
  0
LINE
  8
0
 10
93.6714
 20
-199.062
 11
80.9874
 21
-204.551
  0
LINE
  8
0
 10
80.9874
 20
-204.551
 11
67.9837
 21
-209.232
  0
LINE
  8
0
 10
67.9837
 20
-209.232
 11
54.7118
 21
-213.088
  0
LINE
  8
0
 10
54.7118
 20
-213.088
 11
41.2239
 21
-216.103
  0
LINE
  8
0
 10
41.2239
 20
-216.103
 11
27.5733
 21
-218.265
  0
LINE
  8
0
 10
27.5733
 20
-218.265
 11
13.8139
 21
-219.566
  0
LINE
  8
0
 10
13.8139
 20
-219.566
 11
0
 21
-220
  0
LINE
  8
0
 10
0
 20
-220
 11
-13.8139
 21
-219.566
  0
LINE
  8
0
 10
200
 20
91.5037
 11
204.551
 21
80.9874
  0
LINE
  8
0
 10
204.551
 20
80.9874
 11
209.232
 21
67.9837
  0
LINE
  8
0
 10
209.232
 20
67.9837
 11
213.088
 21
54.7118
  0
LINE
  8
0
 10
213.088
 20
54.7118
 11
216.103
 21
41.2239
  0
LINE
  8
0
 10
216.103
 20
41.2239
 11
218.265
 21
27.5733
  0
LINE
  8
0
 10
218.265
 20
27.5733
 11
219.566
 21
13.8139
  0
LINE
  8
0
 10
219.566
 20
13.8139
 11
220
 21
0
  0
LINE
  8
0
 10
220
 20
0
 11
219.566
 21
-13.8139
  0
LINE
  8
0
 10
219.566
 20
-13.8139
 11
218.265
 21
-27.5733
  0
LINE
  8
0
 10
218.265
 20
-27.5733
 11
216.103
 21
-41.2239
  0
LINE
  8
0
 10
216.103
 20
-41.2239
 11
213.088
 21
-54.7118
  0
LINE
  8
0
 10
213.088
 20
-54.7118
 11
209.232
 21
-67.9837
  0
LINE
  8
0
 10
209.232
 20
-67.9837
 11
204.551
 21
-80.9874
  0
LINE
  8
0
 10
204.551
 20
-80.9874
 11
200
 21
-91.5037
  0
LINE
  8
0
 10
200
 20
-91.5037
 11
200
 21
91.5037
  0
LINE
  8
0
 10
278.059
 20
-10.9783
 11
277.371
 21
-10.9133
  0
LINE
  8
0
 10
277.371
 20
-10.9133
 11
276.689
 21
-10.8051
  0
LINE
  8
0
 10
276.689
 20
-10.8051
 11
276.014
 21
-10.6544
  0
LINE
  8
0
 10
276.014
 20
-10.6544
 11
275.351
 21
-10.4616
  0
LINE
  8
0
 10
275.351
 20
-10.4616
 11
274.701
 21
-10.2275
  0
LINE
  8
0
 10
274.701
 20
-10.2275
 11
274.066
 21
-9.95309
  0
LINE
  8
0
 10
274.066
 20
-9.95309
 11
273.451
 21
-9.63936
  0
LINE
  8
0
 10
273.451
 20
-9.63936
 11
272.856
 21
-9.2876
  0
LINE
  8
0
 10
272.856
 20
-9.2876
 11
272.284
 21
-8.89919
  0
LINE
  8
0
 10
272.284
 20
-8.89919
 11
271.738
 21
-8.47563
  0
LINE
  8
0
 10
271.738
 20
-8.47563
 11
271.22
 21
-8.01865
  0
LINE
  8
0
 10
271.22
 20
-8.01865
 11
270.731
 21
-7.53001
  0
LINE
  8
0
 10
270.731
 20
-7.53001
 11
270.274
 21
-7.01166
  0
LINE
  8
0
 10
270.274
 20
-7.01166
 11
269.851
 21
-6.46564
  0
LINE
  8
0
 10
269.851
 20
-6.46564
 11
269.462
 21
-5.89409
  0
LINE
  8
0
 10
269.462
 20
-5.89409
 11
269.111
 21
-5.29929
  0
LINE
  8
0
 10
269.111
 20
-5.29929
 11
268.797
 21
-4.68356
  0
LINE
  8
0
 10
268.797
 20
-4.68356
 11
268.522
 21
-4.04936
  0
LINE
  8
0
 10
268.522
 20
-4.04936
 11
268.288
 21
-3.39919
  0
LINE
  8
0
 10
268.288
 20
-3.39919
 11
268.096
 21
-2.73558
  0
LINE
  8
0
 10
268.096
 20
-2.73558
 11
267.945
 21
-2.06119
  0
LINE
  8
0
 10
267.945
 20
-2.06119
 11
267.837
 21
-1.37866
  0
LINE
  8
0
 10
267.837
 20
-1.37866
 11
267.772
 21
-0.690689
  0
LINE
  8
0
 10
267.772
 20
-0.690689
 11
267.75
 21
0
  0
LINE
  8
0
 10
267.75
 20
0
 11
267.772
 21
0.690689
  0
LINE
  8
0
 10
267.772
 20
0.690689
 11
267.837
 21
1.37866
  0
LINE
  8
0
 10
267.837
 20
1.37866
 11
267.945
 21
2.06119
  0
LINE
  8
0
 10
267.945
 20
2.06119
 11
268.096
 21
2.73558
  0
LINE
  8
0
 10
268.096
 20
2.73558
 11
268.288
 21
3.39919
  0
LINE
  8
0
 10
268.288
 20
3.39919
 11
268.522
 21
4.04936
  0
LINE
  8
0
 10
268.522
 20
4.04936
 11
268.797
 21
4.68356
  0
LINE
  8
0
 10
268.797
 20
4.68356
 11
269.111
 21
5.29929
  0
LINE
  8
0
 10
269.111
 20
5.29929
 11
269.462
 21
5.89409
  0
LINE
  8
0
 10
269.462
 20
5.89409
 11
269.851
 21
6.46564
  0
LINE
  8
0
 10
269.851
 20
6.46564
 11
270.274
 21
7.01166
  0
LINE
  8
0
 10
270.274
 20
7.01166
 11
270.731
 21
7.53001
  0
LINE
  8
0
 10
270.731
 20
7.53001
 11
271.22
 21
8.01865
  0
LINE
  8
0
 10
271.22
 20
8.01865
 11
271.738
 21
8.47563
  0
LINE
  8
0
 10
271.738
 20
8.47563
 11
272.284
 21
8.89919
  0
LINE
  8
0
 10
272.284
 20
8.89919
 11
272.856
 21
9.2876
  0
LINE
  8
0
 10
272.856
 20
9.2876
 11
273.451
 21
9.63936
  0
LINE
  8
0
 10
273.451
 20
9.63936
 11
274.066
 21
9.95309
  0
LINE
  8
0
 10
274.066
 20
9.95309
 11
274.701
 21
10.2275
  0
LINE
  8
0
 10
274.701
 20
10.2275
 11
275.351
 21
10.4616
  0
LINE
  8
0
 10
275.351
 20
10.4616
 11
276.014
 21
10.6544
  0
LINE
  8
0
 10
276.014
 20
10.6544
 11
276.689
 21
10.8051
  0
LINE
  8
0
 10
276.689
 20
10.8051
 11
277.371
 21
10.9133
  0
LINE
  8
0
 10
277.371
 20
10.9133
 11
278.059
 21
10.9783
  0
LINE
  8
0
 10
278.059
 20
10.9783
 11
278.75
 21
11
  0
LINE
  8
0
 10
278.75
 20
11
 11
279.441
 21
10.9783
  0
LINE
  8
0
 10
279.441
 20
10.9783
 11
280.129
 21
10.9133
  0
LINE
  8
0
 10
280.129
 20
10.9133
 11
280.811
 21
10.8051
  0
LINE
  8
0
 10
280.811
 20
10.8051
 11
281.486
 21
10.6544
  0
LINE
  8
0
 10
281.486
 20
10.6544
 11
282.149
 21
10.4616
  0
LINE
  8
0
 10
282.149
 20
10.4616
 11
282.799
 21
10.2275
  0
LINE
  8
0
 10
282.799
 20
10.2275
 11
283.434
 21
9.95309
  0
LINE
  8
0
 10
283.434
 20
9.95309
 11
284.049
 21
9.63936
  0
LINE
  8
0
 10
284.049
 20
9.63936
 11
284.644
 21
9.2876
  0
LINE
  8
0
 10
284.644
 20
9.2876
 11
285.216
 21
8.89919
  0
LINE
  8
0
 10
285.216
 20
8.89919
 11
285.762
 21
8.47563
  0
LINE
  8
0
 10
285.762
 20
8.47563
 11
286.28
 21
8.01865
  0
LINE
  8
0
 10
286.28
 20
8.01865
 11
286.769
 21
7.53001
  0
LINE
  8
0
 10
286.769
 20
7.53001
 11
287.226
 21
7.01166
  0
LINE
  8
0
 10
287.226
 20
7.01166
 11
287.649
 21
6.46564
  0
LINE
  8
0
 10
287.649
 20
6.46564
 11
288.038
 21
5.89409
  0
LINE
  8
0
 10
288.038
 20
5.89409
 11
288.389
 21
5.29929
  0
LINE
  8
0
 10
288.389
 20
5.29929
 11
288.703
 21
4.68356
  0
LINE
  8
0
 10
288.703
 20
4.68356
 11
288.978
 21
4.04936
  0
LINE
  8
0
 10
288.978
 20
4.04936
 11
289.212
 21
3.39919
  0
LINE
  8
0
 10
289.212
 20
3.39919
 11
289.404
 21
2.73558
  0
LINE
  8
0
 10
289.404
 20
2.73558
 11
289.555
 21
2.06119
  0
LINE
  8
0
 10
289.555
 20
2.06119
 11
289.663
 21
1.37866
  0
LINE
  8
0
 10
289.663
 20
1.37866
 11
289.728
 21
0.690689
  0
LINE
  8
0
 10
289.728
 20
0.690689
 11
289.75
 21
0
  0
LINE
  8
0
 10
289.75
 20
0
 11
289.728
 21
-0.690689
  0
LINE
  8
0
 10
289.728
 20
-0.690689
 11
289.663
 21
-1.37866
  0
LINE
  8
0
 10
289.663
 20
-1.37866
 11
289.555
 21
-2.06119
  0
LINE
  8
0
 10
289.555
 20
-2.06119
 11
289.404
 21
-2.73558
  0
LINE
  8
0
 10
289.404
 20
-2.73558
 11
289.212
 21
-3.39919
  0
LINE
  8
0
 10
289.212
 20
-3.39919
 11
288.978
 21
-4.04936
  0
LINE
  8
0
 10
288.978
 20
-4.04936
 11
288.703
 21
-4.68356
  0
LINE
  8
0
 10
288.703
 20
-4.68356
 11
288.389
 21
-5.29929
  0
LINE
  8
0
 10
288.389
 20
-5.29929
 11
288.038
 21
-5.89409
  0
LINE
  8
0
 10
288.038
 20
-5.89409
 11
287.649
 21
-6.46564
  0
LINE
  8
0
 10
287.649
 20
-6.46564
 11
287.226
 21
-7.01166
  0
LINE
  8
0
 10
287.226
 20
-7.01166
 11
286.769
 21
-7.53001
  0
LINE
  8
0
 10
286.769
 20
-7.53001
 11
286.28
 21
-8.01865
  0
LINE
  8
0
 10
286.28
 20
-8.01865
 11
285.762
 21
-8.47563
  0
LINE
  8
0
 10
285.762
 20
-8.47563
 11
285.216
 21
-8.89919
  0
LINE
  8
0
 10
285.216
 20
-8.89919
 11
284.644
 21
-9.2876
  0
LINE
  8
0
 10
284.644
 20
-9.2876
 11
284.049
 21
-9.63936
  0
LINE
  8
0
 10
284.049
 20
-9.63936
 11
283.434
 21
-9.95309
  0
LINE
  8
0
 10
283.434
 20
-9.95309
 11
282.799
 21
-10.2275
  0
LINE
  8
0
 10
282.799
 20
-10.2275
 11
282.149
 21
-10.4616
  0
LINE
  8
0
 10
282.149
 20
-10.4616
 11
281.486
 21
-10.6544
  0
LINE
  8
0
 10
281.486
 20
-10.6544
 11
280.811
 21
-10.8051
  0
LINE
  8
0
 10
280.811
 20
-10.8051
 11
280.129
 21
-10.9133
  0
LINE
  8
0
 10
280.129
 20
-10.9133
 11
279.441
 21
-10.9783
  0
LINE
  8
0
 10
279.441
 20
-10.9783
 11
278.75
 21
-11
  0
LINE
  8
0
 10
278.75
 20
-11
 11
278.059
 21
-10.9783
  0
LINE
  8
0
 10
-230.157
 20
-2.49506
 11
-230.313
 21
-2.48029
  0
LINE
  8
0
 10
-230.313
 20
-2.48029
 11
-230.468
 21
-2.4557
  0
LINE
  8
0
 10
-230.468
 20
-2.4557
 11
-230.622
 21
-2.42145
  0
LINE
  8
0
 10
-230.622
 20
-2.42145
 11
-230.773
 21
-2.37764
  0
LINE
  8
0
 10
-230.773
 20
-2.37764
 11
-230.92
 21
-2.32443
  0
LINE
  8
0
 10
-230.92
 20
-2.32443
 11
-231.064
 21
-2.26205
  0
LINE
  8
0
 10
-231.064
 20
-2.26205
 11
-231.204
 21
-2.19077
  0
LINE
  8
0
 10
-231.204
 20
-2.19077
 11
-231.34
 21
-2.11081
  0
LINE
  8
0
 10
-231.34
 20
-2.11081
 11
-231.469
 21
-2.02254
  0
LINE
  8
0
 10
-231.469
 20
-2.02254
 11
-231.594
 21
-1.92627
  0
LINE
  8
0
 10
-231.594
 20
-1.92627
 11
-231.711
 21
-1.82242
  0
LINE
  8
0
 10
-231.711
 20
-1.82242
 11
-231.822
 21
-1.71136
  0
LINE
  8
0
 10
-231.822
 20
-1.71136
 11
-231.926
 21
-1.59355
  0
LINE
  8
0
 10
-231.926
 20
-1.59355
 11
-232.023
 21
-1.46945
  0
LINE
  8
0
 10
-232.023
 20
-1.46945
 11
-232.111
 21
-1.33955
  0
LINE
  8
0
 10
-232.111
 20
-1.33955
 11
-232.191
 21
-1.20438
  0
LINE
  8
0
 10
-232.191
 20
-1.20438
 11
-232.262
 21
-1.06444
  0
LINE
  8
0
 10
-232.262
 20
-1.06444
 11
-232.324
 21
-0.920303
  0
LINE
  8
0
 10
-232.324
 20
-0.920303
 11
-232.378
 21
-0.772537
  0
LINE
  8
0
 10
-232.378
 20
-0.772537
 11
-232.421
 21
-0.621719
  0
LINE
  8
0
 10
-232.421
 20
-0.621719
 11
-232.456
 21
-0.468445
  0
LINE
  8
0
 10
-232.456
 20
-0.468445
 11
-232.48
 21
-0.313324
  0
LINE
  8
0
 10
-232.48
 20
-0.313324
 11
-232.495
 21
-0.156967
  0
LINE
  8
0
 10
-232.495
 20
-0.156967
 11
-232.5
 21
0
  0
LINE
  8
0
 10
-232.5
 20
0
 11
-232.495
 21
0.156967
  0
LINE
  8
0
 10
-232.495
 20
0.156967
 11
-232.48
 21
0.313324
  0
LINE
  8
0
 10
-232.48
 20
0.313324
 11
-232.456
 21
0.468445
  0
LINE
  8
0
 10
-232.456
 20
0.468445
 11
-232.421
 21
0.621719
  0
LINE
  8
0
 10
-232.421
 20
0.621719
 11
-232.378
 21
0.772537
  0
LINE
  8
0
 10
-232.378
 20
0.772537
 11
-232.324
 21
0.920303
  0
LINE
  8
0
 10
-232.324
 20
0.920303
 11
-232.262
 21
1.06444
  0
LINE
  8
0
 10
-232.262
 20
1.06444
 11
-232.191
 21
1.20438
  0
LINE
  8
0
 10
-232.191
 20
1.20438
 11
-232.111
 21
1.33955
  0
LINE
  8
0
 10
-232.111
 20
1.33955
 11
-232.023
 21
1.46945
  0
LINE
  8
0
 10
-232.023
 20
1.46945
 11
-231.926
 21
1.59355
  0
LINE
  8
0
 10
-231.926
 20
1.59355
 11
-231.822
 21
1.71136
  0
LINE
  8
0
 10
-231.822
 20
1.71136
 11
-231.711
 21
1.82242
  0
LINE
  8
0
 10
-231.711
 20
1.82242
 11
-231.594
 21
1.92627
  0
LINE
  8
0
 10
-231.594
 20
1.92627
 11
-231.469
 21
2.02254
  0
LINE
  8
0
 10
-231.469
 20
2.02254
 11
-231.34
 21
2.11081
  0
LINE
  8
0
 10
-231.34
 20
2.11081
 11
-231.204
 21
2.19077
  0
LINE
  8
0
 10
-231.204
 20
2.19077
 11
-231.064
 21
2.26205
  0
LINE
  8
0
 10
-231.064
 20
2.26205
 11
-230.92
 21
2.32443
  0
LINE
  8
0
 10
-230.92
 20
2.32443
 11
-230.773
 21
2.37764
  0
LINE
  8
0
 10
-230.773
 20
2.37764
 11
-230.622
 21
2.42145
  0
LINE
  8
0
 10
-230.622
 20
2.42145
 11
-230.468
 21
2.4557
  0
LINE
  8
0
 10
-230.468
 20
2.4557
 11
-230.313
 21
2.48029
  0
LINE
  8
0
 10
-230.313
 20
2.48029
 11
-230.157
 21
2.49506
  0
LINE
  8
0
 10
-230.157
 20
2.49506
 11
-230
 21
2.5
  0
LINE
  8
0
 10
-230
 20
2.5
 11
-229.843
 21
2.49506
  0
LINE
  8
0
 10
-229.843
 20
2.49506
 11
-229.687
 21
2.48029
  0
LINE
  8
0
 10
-229.687
 20
2.48029
 11
-229.532
 21
2.4557
  0
LINE
  8
0
 10
-229.532
 20
2.4557
 11
-229.378
 21
2.42145
  0
LINE
  8
0
 10
-229.378
 20
2.42145
 11
-229.227
 21
2.37764
  0
LINE
  8
0
 10
-229.227
 20
2.37764
 11
-229.08
 21
2.32443
  0
LINE
  8
0
 10
-229.08
 20
2.32443
 11
-228.936
 21
2.26205
  0
LINE
  8
0
 10
-228.936
 20
2.26205
 11
-228.796
 21
2.19077
  0
LINE
  8
0
 10
-228.796
 20
2.19077
 11
-228.66
 21
2.11081
  0
LINE
  8
0
 10
-228.66
 20
2.11081
 11
-228.531
 21
2.02254
  0
LINE
  8
0
 10
-228.531
 20
2.02254
 11
-228.406
 21
1.92627
  0
LINE
  8
0
 10
-228.406
 20
1.92627
 11
-228.289
 21
1.82242
  0
LINE
  8
0
 10
-228.289
 20
1.82242
 11
-228.178
 21
1.71136
  0
LINE
  8
0
 10
-228.178
 20
1.71136
 11
-228.074
 21
1.59355
  0
LINE
  8
0
 10
-228.074
 20
1.59355
 11
-227.977
 21
1.46945
  0
LINE
  8
0
 10
-227.977
 20
1.46945
 11
-227.889
 21
1.33955
  0
LINE
  8
0
 10
-227.889
 20
1.33955
 11
-227.809
 21
1.20438
  0
LINE
  8
0
 10
-227.809
 20
1.20438
 11
-227.738
 21
1.06444
  0
LINE
  8
0
 10
-227.738
 20
1.06444
 11
-227.676
 21
0.920303
  0
LINE
  8
0
 10
-227.676
 20
0.920303
 11
-227.622
 21
0.772537
  0
LINE
  8
0
 10
-227.622
 20
0.772537
 11
-227.579
 21
0.621719
  0
LINE
  8
0
 10
-227.579
 20
0.621719
 11
-227.544
 21
0.468445
  0
LINE
  8
0
 10
-227.544
 20
0.468445
 11
-227.52
 21
0.313324
  0
LINE
  8
0
 10
-227.52
 20
0.313324
 11
-227.505
 21
0.156967
  0
LINE
  8
0
 10
-227.505
 20
0.156967
 11
-227.5
 21
0
  0
LINE
  8
0
 10
-227.5
 20
0
 11
-227.505
 21
-0.156967
  0
LINE
  8
0
 10
-227.505
 20
-0.156967
 11
-227.52
 21
-0.313324
  0
LINE
  8
0
 10
-227.52
 20
-0.313324
 11
-227.544
 21
-0.468445
  0
LINE
  8
0
 10
-227.544
 20
-0.468445
 11
-227.579
 21
-0.621719
  0
LINE
  8
0
 10
-227.579
 20
-0.621719
 11
-227.622
 21
-0.772537
  0
LINE
  8
0
 10
-227.622
 20
-0.772537
 11
-227.676
 21
-0.920303
  0
LINE
  8
0
 10
-227.676
 20
-0.920303
 11
-227.738
 21
-1.06444
  0
LINE
  8
0
 10
-227.738
 20
-1.06444
 11
-227.809
 21
-1.20438
  0
LINE
  8
0
 10
-227.809
 20
-1.20438
 11
-227.889
 21
-1.33955
  0
LINE
  8
0
 10
-227.889
 20
-1.33955
 11
-227.977
 21
-1.46945
  0
LINE
  8
0
 10
-227.977
 20
-1.46945
 11
-228.074
 21
-1.59355
  0
LINE
  8
0
 10
-228.074
 20
-1.59355
 11
-228.178
 21
-1.71136
  0
LINE
  8
0
 10
-228.178
 20
-1.71136
 11
-228.289
 21
-1.82242
  0
LINE
  8
0
 10
-228.289
 20
-1.82242
 11
-228.406
 21
-1.92627
  0
LINE
  8
0
 10
-228.406
 20
-1.92627
 11
-228.531
 21
-2.02254
  0
LINE
  8
0
 10
-228.531
 20
-2.02254
 11
-228.66
 21
-2.11081
  0
LINE
  8
0
 10
-228.66
 20
-2.11081
 11
-228.796
 21
-2.19077
  0
LINE
  8
0
 10
-228.796
 20
-2.19077
 11
-228.936
 21
-2.26205
  0
LINE
  8
0
 10
-228.936
 20
-2.26205
 11
-229.08
 21
-2.32443
  0
LINE
  8
0
 10
-229.08
 20
-2.32443
 11
-229.227
 21
-2.37764
  0
LINE
  8
0
 10
-229.227
 20
-2.37764
 11
-229.378
 21
-2.42145
  0
LINE
  8
0
 10
-229.378
 20
-2.42145
 11
-229.532
 21
-2.4557
  0
LINE
  8
0
 10
-229.532
 20
-2.4557
 11
-229.687
 21
-2.48029
  0
LINE
  8
0
 10
-229.687
 20
-2.48029
 11
-229.843
 21
-2.49506
  0
LINE
  8
0
 10
-229.843
 20
-2.49506
 11
-230
 21
-2.5
  0
LINE
  8
0
 10
-230
 20
-2.5
 11
-230.157
 21
-2.49506
  0
LINE
  8
0
 10
229.843
 20
-2.49506
 11
229.687
 21
-2.48029
  0
LINE
  8
0
 10
229.687
 20
-2.48029
 11
229.532
 21
-2.4557
  0
LINE
  8
0
 10
229.532
 20
-2.4557
 11
229.378
 21
-2.42145
  0
LINE
  8
0
 10
229.378
 20
-2.42145
 11
229.227
 21
-2.37764
  0
LINE
  8
0
 10
229.227
 20
-2.37764
 11
229.08
 21
-2.32443
  0
LINE
  8
0
 10
229.08
 20
-2.32443
 11
228.936
 21
-2.26205
  0
LINE
  8
0
 10
228.936
 20
-2.26205
 11
228.796
 21
-2.19077
  0
LINE
  8
0
 10
228.796
 20
-2.19077
 11
228.66
 21
-2.11081
  0
LINE
  8
0
 10
228.66
 20
-2.11081
 11
228.531
 21
-2.02254
  0
LINE
  8
0
 10
228.531
 20
-2.02254
 11
228.406
 21
-1.92627
  0
LINE
  8
0
 10
228.406
 20
-1.92627
 11
228.289
 21
-1.82242
  0
LINE
  8
0
 10
228.289
 20
-1.82242
 11
228.178
 21
-1.71136
  0
LINE
  8
0
 10
228.178
 20
-1.71136
 11
228.074
 21
-1.59355
  0
LINE
  8
0
 10
228.074
 20
-1.59355
 11
227.977
 21
-1.46945
  0
LINE
  8
0
 10
227.977
 20
-1.46945
 11
227.889
 21
-1.33955
  0
LINE
  8
0
 10
227.889
 20
-1.33955
 11
227.809
 21
-1.20438
  0
LINE
  8
0
 10
227.809
 20
-1.20438
 11
227.738
 21
-1.06444
  0
LINE
  8
0
 10
227.738
 20
-1.06444
 11
227.676
 21
-0.920303
  0
LINE
  8
0
 10
227.676
 20
-0.920303
 11
227.622
 21
-0.772537
  0
LINE
  8
0
 10
227.622
 20
-0.772537
 11
227.579
 21
-0.621719
  0
LINE
  8
0
 10
227.579
 20
-0.621719
 11
227.544
 21
-0.468445
  0
LINE
  8
0
 10
227.544
 20
-0.468445
 11
227.52
 21
-0.313324
  0
LINE
  8
0
 10
227.52
 20
-0.313324
 11
227.505
 21
-0.156967
  0
LINE
  8
0
 10
227.505
 20
-0.156967
 11
227.5
 21
0
  0
LINE
  8
0
 10
227.5
 20
0
 11
227.505
 21
0.156967
  0
LINE
  8
0
 10
227.505
 20
0.156967
 11
227.52
 21
0.313324
  0
LINE
  8
0
 10
227.52
 20
0.313324
 11
227.544
 21
0.468445
  0
LINE
  8
0
 10
227.544
 20
0.468445
 11
227.579
 21
0.621719
  0
LINE
  8
0
 10
227.579
 20
0.621719
 11
227.622
 21
0.772537
  0
LINE
  8
0
 10
227.622
 20
0.772537
 11
227.676
 21
0.920303
  0
LINE
  8
0
 10
227.676
 20
0.920303
 11
227.738
 21
1.06444
  0
LINE
  8
0
 10
227.738
 20
1.06444
 11
227.809
 21
1.20438
  0
LINE
  8
0
 10
227.809
 20
1.20438
 11
227.889
 21
1.33955
  0
LINE
  8
0
 10
227.889
 20
1.33955
 11
227.977
 21
1.46945
  0
LINE
  8
0
 10
227.977
 20
1.46945
 11
228.074
 21
1.59355
  0
LINE
  8
0
 10
228.074
 20
1.59355
 11
228.178
 21
1.71136
  0
LINE
  8
0
 10
228.178
 20
1.71136
 11
228.289
 21
1.82242
  0
LINE
  8
0
 10
228.289
 20
1.82242
 11
228.406
 21
1.92627
  0
LINE
  8
0
 10
228.406
 20
1.92627
 11
228.531
 21
2.02254
  0
LINE
  8
0
 10
228.531
 20
2.02254
 11
228.66
 21
2.11081
  0
LINE
  8
0
 10
228.66
 20
2.11081
 11
228.796
 21
2.19077
  0
LINE
  8
0
 10
228.796
 20
2.19077
 11
228.936
 21
2.26205
  0
LINE
  8
0
 10
228.936
 20
2.26205
 11
229.08
 21
2.32443
  0
LINE
  8
0
 10
229.08
 20
2.32443
 11
229.227
 21
2.37764
  0
LINE
  8
0
 10
229.227
 20
2.37764
 11
229.378
 21
2.42145
  0
LINE
  8
0
 10
229.378
 20
2.42145
 11
229.532
 21
2.4557
  0
LINE
  8
0
 10
229.532
 20
2.4557
 11
229.687
 21
2.48029
  0
LINE
  8
0
 10
229.687
 20
2.48029
 11
229.843
 21
2.49506
  0
LINE
  8
0
 10
229.843
 20
2.49506
 11
230
 21
2.5
  0
LINE
  8
0
 10
230
 20
2.5
 11
230.157
 21
2.49506
  0
LINE
  8
0
 10
230.157
 20
2.49506
 11
230.313
 21
2.48029
  0
LINE
  8
0
 10
230.313
 20
2.48029
 11
230.468
 21
2.4557
  0
LINE
  8
0
 10
230.468
 20
2.4557
 11
230.622
 21
2.42145
  0
LINE
  8
0
 10
230.622
 20
2.42145
 11
230.773
 21
2.37764
  0
LINE
  8
0
 10
230.773
 20
2.37764
 11
230.92
 21
2.32443
  0
LINE
  8
0
 10
230.92
 20
2.32443
 11
231.064
 21
2.26205
  0
LINE
  8
0
 10
231.064
 20
2.26205
 11
231.204
 21
2.19077
  0
LINE
  8
0
 10
231.204
 20
2.19077
 11
231.34
 21
2.11081
  0
LINE
  8
0
 10
231.34
 20
2.11081
 11
231.469
 21
2.02254
  0
LINE
  8
0
 10
231.469
 20
2.02254
 11
231.594
 21
1.92627
  0
LINE
  8
0
 10
231.594
 20
1.92627
 11
231.711
 21
1.82242
  0
LINE
  8
0
 10
231.711
 20
1.82242
 11
231.822
 21
1.71136
  0
LINE
  8
0
 10
231.822
 20
1.71136
 11
231.926
 21
1.59355
  0
LINE
  8
0
 10
231.926
 20
1.59355
 11
232.023
 21
1.46945
  0
LINE
  8
0
 10
232.023
 20
1.46945
 11
232.111
 21
1.33955
  0
LINE
  8
0
 10
232.111
 20
1.33955
 11
232.191
 21
1.20438
  0
LINE
  8
0
 10
232.191
 20
1.20438
 11
232.262
 21
1.06444
  0
LINE
  8
0
 10
232.262
 20
1.06444
 11
232.324
 21
0.920303
  0
LINE
  8
0
 10
232.324
 20
0.920303
 11
232.378
 21
0.772537
  0
LINE
  8
0
 10
232.378
 20
0.772537
 11
232.421
 21
0.621719
  0
LINE
  8
0
 10
232.421
 20
0.621719
 11
232.456
 21
0.468445
  0
LINE
  8
0
 10
232.456
 20
0.468445
 11
232.48
 21
0.313324
  0
LINE
  8
0
 10
232.48
 20
0.313324
 11
232.495
 21
0.156967
  0
LINE
  8
0
 10
232.495
 20
0.156967
 11
232.5
 21
0
  0
LINE
  8
0
 10
232.5
 20
0
 11
232.495
 21
-0.156967
  0
LINE
  8
0
 10
232.495
 20
-0.156967
 11
232.48
 21
-0.313324
  0
LINE
  8
0
 10
232.48
 20
-0.313324
 11
232.456
 21
-0.468445
  0
LINE
  8
0
 10
232.456
 20
-0.468445
 11
232.421
 21
-0.621719
  0
LINE
  8
0
 10
232.421
 20
-0.621719
 11
232.378
 21
-0.772537
  0
LINE
  8
0
 10
232.378
 20
-0.772537
 11
232.324
 21
-0.920303
  0
LINE
  8
0
 10
232.324
 20
-0.920303
 11
232.262
 21
-1.06444
  0
LINE
  8
0
 10
232.262
 20
-1.06444
 11
232.191
 21
-1.20438
  0
LINE
  8
0
 10
232.191
 20
-1.20438
 11
232.111
 21
-1.33955
  0
LINE
  8
0
 10
232.111
 20
-1.33955
 11
232.023
 21
-1.46945
  0
LINE
  8
0
 10
232.023
 20
-1.46945
 11
231.926
 21
-1.59355
  0
LINE
  8
0
 10
231.926
 20
-1.59355
 11
231.822
 21
-1.71136
  0
LINE
  8
0
 10
231.822
 20
-1.71136
 11
231.711
 21
-1.82242
  0
LINE
  8
0
 10
231.711
 20
-1.82242
 11
231.594
 21
-1.92627
  0
LINE
  8
0
 10
231.594
 20
-1.92627
 11
231.469
 21
-2.02254
  0
LINE
  8
0
 10
231.469
 20
-2.02254
 11
231.34
 21
-2.11081
  0
LINE
  8
0
 10
231.34
 20
-2.11081
 11
231.204
 21
-2.19077
  0
LINE
  8
0
 10
231.204
 20
-2.19077
 11
231.064
 21
-2.26205
  0
LINE
  8
0
 10
231.064
 20
-2.26205
 11
230.92
 21
-2.32443
  0
LINE
  8
0
 10
230.92
 20
-2.32443
 11
230.773
 21
-2.37764
  0
LINE
  8
0
 10
230.773
 20
-2.37764
 11
230.622
 21
-2.42145
  0
LINE
  8
0
 10
230.622
 20
-2.42145
 11
230.468
 21
-2.4557
  0
LINE
  8
0
 10
230.468
 20
-2.4557
 11
230.313
 21
-2.48029
  0
LINE
  8
0
 10
230.313
 20
-2.48029
 11
230.157
 21
-2.49506
  0
LINE
  8
0
 10
230.157
 20
-2.49506
 11
230
 21
-2.5
  0
LINE
  8
0
 10
230
 20
-2.5
 11
229.843
 21
-2.49506
  0
LINE
  8
0
 10
-0.156967
 20
-232.495
 11
-0.313324
 21
-232.48
  0
LINE
  8
0
 10
-0.313324
 20
-232.48
 11
-0.468445
 21
-232.456
  0
LINE
  8
0
 10
-0.468445
 20
-232.456
 11
-0.621719
 21
-232.421
  0
LINE
  8
0
 10
-0.621719
 20
-232.421
 11
-0.772537
 21
-232.378
  0
LINE
  8
0
 10
-0.772537
 20
-232.378
 11
-0.920303
 21
-232.324
  0
LINE
  8
0
 10
-0.920303
 20
-232.324
 11
-1.06444
 21
-232.262
  0
LINE
  8
0
 10
-1.06444
 20
-232.262
 11
-1.20438
 21
-232.191
  0
LINE
  8
0
 10
-1.20438
 20
-232.191
 11
-1.33955
 21
-232.111
  0
LINE
  8
0
 10
-1.33955
 20
-232.111
 11
-1.46945
 21
-232.023
  0
LINE
  8
0
 10
-1.46945
 20
-232.023
 11
-1.59355
 21
-231.926
  0
LINE
  8
0
 10
-1.59355
 20
-231.926
 11
-1.71136
 21
-231.822
  0
LINE
  8
0
 10
-1.71136
 20
-231.822
 11
-1.82242
 21
-231.711
  0
LINE
  8
0
 10
-1.82242
 20
-231.711
 11
-1.92627
 21
-231.594
  0
LINE
  8
0
 10
-1.92627
 20
-231.594
 11
-2.02254
 21
-231.469
  0
LINE
  8
0
 10
-2.02254
 20
-231.469
 11
-2.11081
 21
-231.34
  0
LINE
  8
0
 10
-2.11081
 20
-231.34
 11
-2.19077
 21
-231.204
  0
LINE
  8
0
 10
-2.19077
 20
-231.204
 11
-2.26205
 21
-231.064
  0
LINE
  8
0
 10
-2.26205
 20
-231.064
 11
-2.32443
 21
-230.92
  0
LINE
  8
0
 10
-2.32443
 20
-230.92
 11
-2.37764
 21
-230.773
  0
LINE
  8
0
 10
-2.37764
 20
-230.773
 11
-2.42145
 21
-230.622
  0
LINE
  8
0
 10
-2.42145
 20
-230.622
 11
-2.4557
 21
-230.468
  0
LINE
  8
0
 10
-2.4557
 20
-230.468
 11
-2.48029
 21
-230.313
  0
LINE
  8
0
 10
-2.48029
 20
-230.313
 11
-2.49506
 21
-230.157
  0
LINE
  8
0
 10
-2.49506
 20
-230.157
 11
-2.5
 21
-230
  0
LINE
  8
0
 10
-2.5
 20
-230
 11
-2.49506
 21
-229.843
  0
LINE
  8
0
 10
-2.49506
 20
-229.843
 11
-2.48029
 21
-229.687
  0
LINE
  8
0
 10
-2.48029
 20
-229.687
 11
-2.4557
 21
-229.532
  0
LINE
  8
0
 10
-2.4557
 20
-229.532
 11
-2.42145
 21
-229.378
  0
LINE
  8
0
 10
-2.42145
 20
-229.378
 11
-2.37764
 21
-229.227
  0
LINE
  8
0
 10
-2.37764
 20
-229.227
 11
-2.32443
 21
-229.08
  0
LINE
  8
0
 10
-2.32443
 20
-229.08
 11
-2.26205
 21
-228.936
  0
LINE
  8
0
 10
-2.26205
 20
-228.936
 11
-2.19077
 21
-228.796
  0
LINE
  8
0
 10
-2.19077
 20
-228.796
 11
-2.11081
 21
-228.66
  0
LINE
  8
0
 10
-2.11081
 20
-228.66
 11
-2.02254
 21
-228.531
  0
LINE
  8
0
 10
-2.02254
 20
-228.531
 11
-1.92627
 21
-228.406
  0
LINE
  8
0
 10
-1.92627
 20
-228.406
 11
-1.82242
 21
-228.289
  0
LINE
  8
0
 10
-1.82242
 20
-228.289
 11
-1.71136
 21
-228.178
  0
LINE
  8
0
 10
-1.71136
 20
-228.178
 11
-1.59355
 21
-228.074
  0
LINE
  8
0
 10
-1.59355
 20
-228.074
 11
-1.46945
 21
-227.977
  0
LINE
  8
0
 10
-1.46945
 20
-227.977
 11
-1.33955
 21
-227.889
  0
LINE
  8
0
 10
-1.33955
 20
-227.889
 11
-1.20438
 21
-227.809
  0
LINE
  8
0
 10
-1.20438
 20
-227.809
 11
-1.06444
 21
-227.738
  0
LINE
  8
0
 10
-1.06444
 20
-227.738
 11
-0.920303
 21
-227.676
  0
LINE
  8
0
 10
-0.920303
 20
-227.676
 11
-0.772537
 21
-227.622
  0
LINE
  8
0
 10
-0.772537
 20
-227.622
 11
-0.621719
 21
-227.579
  0
LINE
  8
0
 10
-0.621719
 20
-227.579
 11
-0.468445
 21
-227.544
  0
LINE
  8
0
 10
-0.468445
 20
-227.544
 11
-0.313324
 21
-227.52
  0
LINE
  8
0
 10
-0.313324
 20
-227.52
 11
-0.156967
 21
-227.505
  0
LINE
  8
0
 10
-0.156967
 20
-227.505
 11
0
 21
-227.5
  0
LINE
  8
0
 10
0
 20
-227.5
 11
0.156967
 21
-227.505
  0
LINE
  8
0
 10
0.156967
 20
-227.505
 11
0.313324
 21
-227.52
  0
LINE
  8
0
 10
0.313324
 20
-227.52
 11
0.468445
 21
-227.544
  0
LINE
  8
0
 10
0.468445
 20
-227.544
 11
0.621719
 21
-227.579
  0
LINE
  8
0
 10
0.621719
 20
-227.579
 11
0.772537
 21
-227.622
  0
LINE
  8
0
 10
0.772537
 20
-227.622
 11
0.920303
 21
-227.676
  0
LINE
  8
0
 10
0.920303
 20
-227.676
 11
1.06444
 21
-227.738
  0
LINE
  8
0
 10
1.06444
 20
-227.738
 11
1.20438
 21
-227.809
  0
LINE
  8
0
 10
1.20438
 20
-227.809
 11
1.33955
 21
-227.889
  0
LINE
  8
0
 10
1.33955
 20
-227.889
 11
1.46945
 21
-227.977
  0
LINE
  8
0
 10
1.46945
 20
-227.977
 11
1.59355
 21
-228.074
  0
LINE
  8
0
 10
1.59355
 20
-228.074
 11
1.71136
 21
-228.178
  0
LINE
  8
0
 10
1.71136
 20
-228.178
 11
1.82242
 21
-228.289
  0
LINE
  8
0
 10
1.82242
 20
-228.289
 11
1.92627
 21
-228.406
  0
LINE
  8
0
 10
1.92627
 20
-228.406
 11
2.02254
 21
-228.531
  0
LINE
  8
0
 10
2.02254
 20
-228.531
 11
2.11081
 21
-228.66
  0
LINE
  8
0
 10
2.11081
 20
-228.66
 11
2.19077
 21
-228.796
  0
LINE
  8
0
 10
2.19077
 20
-228.796
 11
2.26205
 21
-228.936
  0
LINE
  8
0
 10
2.26205
 20
-228.936
 11
2.32443
 21
-229.08
  0
LINE
  8
0
 10
2.32443
 20
-229.08
 11
2.37764
 21
-229.227
  0
LINE
  8
0
 10
2.37764
 20
-229.227
 11
2.42145
 21
-229.378
  0
LINE
  8
0
 10
2.42145
 20
-229.378
 11
2.4557
 21
-229.532
  0
LINE
  8
0
 10
2.4557
 20
-229.532
 11
2.48029
 21
-229.687
  0
LINE
  8
0
 10
2.48029
 20
-229.687
 11
2.49506
 21
-229.843
  0
LINE
  8
0
 10
2.49506
 20
-229.843
 11
2.5
 21
-230
  0
LINE
  8
0
 10
2.5
 20
-230
 11
2.49506
 21
-230.157
  0
LINE
  8
0
 10
2.49506
 20
-230.157
 11
2.48029
 21
-230.313
  0
LINE
  8
0
 10
2.48029
 20
-230.313
 11
2.4557
 21
-230.468
  0
LINE
  8
0
 10
2.4557
 20
-230.468
 11
2.42145
 21
-230.622
  0
LINE
  8
0
 10
2.42145
 20
-230.622
 11
2.37764
 21
-230.773
  0
LINE
  8
0
 10
2.37764
 20
-230.773
 11
2.32443
 21
-230.92
  0
LINE
  8
0
 10
2.32443
 20
-230.92
 11
2.26205
 21
-231.064
  0
LINE
  8
0
 10
2.26205
 20
-231.064
 11
2.19077
 21
-231.204
  0
LINE
  8
0
 10
2.19077
 20
-231.204
 11
2.11081
 21
-231.34
  0
LINE
  8
0
 10
2.11081
 20
-231.34
 11
2.02254
 21
-231.469
  0
LINE
  8
0
 10
2.02254
 20
-231.469
 11
1.92627
 21
-231.594
  0
LINE
  8
0
 10
1.92627
 20
-231.594
 11
1.82242
 21
-231.711
  0
LINE
  8
0
 10
1.82242
 20
-231.711
 11
1.71136
 21
-231.822
  0
LINE
  8
0
 10
1.71136
 20
-231.822
 11
1.59355
 21
-231.926
  0
LINE
  8
0
 10
1.59355
 20
-231.926
 11
1.46945
 21
-232.023
  0
LINE
  8
0
 10
1.46945
 20
-232.023
 11
1.33955
 21
-232.111
  0
LINE
  8
0
 10
1.33955
 20
-232.111
 11
1.20438
 21
-232.191
  0
LINE
  8
0
 10
1.20438
 20
-232.191
 11
1.06444
 21
-232.262
  0
LINE
  8
0
 10
1.06444
 20
-232.262
 11
0.920303
 21
-232.324
  0
LINE
  8
0
 10
0.920303
 20
-232.324
 11
0.772537
 21
-232.378
  0
LINE
  8
0
 10
0.772537
 20
-232.378
 11
0.621719
 21
-232.421
  0
LINE
  8
0
 10
0.621719
 20
-232.421
 11
0.468445
 21
-232.456
  0
LINE
  8
0
 10
0.468445
 20
-232.456
 11
0.313324
 21
-232.48
  0
LINE
  8
0
 10
0.313324
 20
-232.48
 11
0.156967
 21
-232.495
  0
LINE
  8
0
 10
0.156967
 20
-232.495
 11
0
 21
-232.5
  0
LINE
  8
0
 10
0
 20
-232.5
 11
-0.156967
 21
-232.495
  0
ENDSEC
  0
SECTION
  2
OBJECTS
  0
DICTIONARY
  0
ENDSEC
  0
EOF
