  0
SECTION
  2
BLOCKS
  0
ENDSEC
  0
SECTION
  2
ENTITIES
  0
LINE
  8
0
 10
20.7209
 20
-329.349
 11
41.36
 21
-327.398
  0
LINE
  8
0
 10
41.36
 20
-327.398
 11
61.8358
 21
-324.155
  0
LINE
  8
0
 10
61.8358
 20
-324.155
 11
82.0677
 21
-319.632
  0
LINE
  8
0
 10
82.0677
 20
-319.632
 11
101.976
 21
-313.849
  0
LINE
  8
0
 10
101.976
 20
-313.849
 11
121.481
 21
-306.826
  0
LINE
  8
0
 10
121.481
 20
-306.826
 11
140.507
 21
-298.593
  0
LINE
  8
0
 10
140.507
 20
-298.593
 11
158.979
 21
-289.181
  0
LINE
  8
0
 10
158.979
 20
-289.181
 11
176.823
 21
-278.628
  0
LINE
  8
0
 10
176.823
 20
-278.628
 11
193.969
 21
-266.976
  0
LINE
  8
0
 10
193.969
 20
-266.976
 11
210.35
 21
-254.269
  0
LINE
  8
0
 10
210.35
 20
-254.269
 11
225.901
 21
-240.56
  0
LINE
  8
0
 10
225.901
 20
-240.56
 11
240.56
 21
-225.901
  0
LINE
  8
0
 10
240.56
 20
-225.901
 11
254.269
 21
-210.35
  0
LINE
  8
0
 10
254.269
 20
-210.35
 11
266.976
 21
-193.969
  0
LINE
  8
0
 10
266.976
 20
-193.969
 11
278.628
 21
-176.823
  0
LINE
  8
0
 10
278.628
 20
-176.823
 11
289.181
 21
-158.979
  0
LINE
  8
0
 10
289.181
 20
-158.979
 11
298.593
 21
-140.507
  0
LINE
  8
0
 10
298.593
 20
-140.507
 11
306.826
 21
-121.481
  0
LINE
  8
0
 10
306.826
 20
-121.481
 11
313.849
 21
-101.976
  0
LINE
  8
0
 10
313.849
 20
-101.976
 11
319.632
 21
-82.0677
  0
LINE
  8
0
 10
319.632
 20
-82.0677
 11
324.155
 21
-61.8358
  0
LINE
  8
0
 10
324.155
 20
-61.8358
 11
327.398
 21
-41.36
  0
LINE
  8
0
 10
327.398
 20
-41.36
 11
329.349
 21
-20.7209
  0
LINE
  8
0
 10
329.349
 20
-20.7209
 11
330
 21
0
  0
LINE
  8
0
 10
330
 20
0
 11
329.349
 21
20.7209
  0
LINE
  8
0
 10
329.349
 20
20.7209
 11
327.398
 21
41.36
  0
LINE
  8
0
 10
327.398
 20
41.36
 11
324.155
 21
61.8358
  0
LINE
  8
0
 10
324.155
 20
61.8358
 11
319.632
 21
82.0677
  0
LINE
  8
0
 10
319.632
 20
82.0677
 11
313.849
 21
101.976
  0
LINE
  8
0
 10
313.849
 20
101.976
 11
306.826
 21
121.481
  0
LINE
  8
0
 10
306.826
 20
121.481
 11
298.593
 21
140.507
  0
LINE
  8
0
 10
298.593
 20
140.507
 11
289.181
 21
158.979
  0
LINE
  8
0
 10
289.181
 20
158.979
 11
278.628
 21
176.823
  0
LINE
  8
0
 10
278.628
 20
176.823
 11
266.976
 21
193.969
  0
LINE
  8
0
 10
266.976
 20
193.969
 11
254.269
 21
210.35
  0
LINE
  8
0
 10
254.269
 20
210.35
 11
240.56
 21
225.901
  0
LINE
  8
0
 10
240.56
 20
225.901
 11
225.901
 21
240.56
  0
LINE
  8
0
 10
225.901
 20
240.56
 11
210.35
 21
254.269
  0
LINE
  8
0
 10
210.35
 20
254.269
 11
193.969
 21
266.976
  0
LINE
  8
0
 10
193.969
 20
266.976
 11
176.823
 21
278.628
  0
LINE
  8
0
 10
176.823
 20
278.628
 11
158.979
 21
289.181
  0
LINE
  8
0
 10
158.979
 20
289.181
 11
140.507
 21
298.593
  0
LINE
  8
0
 10
140.507
 20
298.593
 11
121.481
 21
306.826
  0
LINE
  8
0
 10
121.481
 20
306.826
 11
101.976
 21
313.849
  0
LINE
  8
0
 10
101.976
 20
313.849
 11
82.0677
 21
319.632
  0
LINE
  8
0
 10
82.0677
 20
319.632
 11
61.8358
 21
324.155
  0
LINE
  8
0
 10
61.8358
 20
324.155
 11
41.36
 21
327.398
  0
LINE
  8
0
 10
41.36
 20
327.398
 11
20.7209
 21
329.349
  0
LINE
  8
0
 10
20.7209
 20
329.349
 11
0
 21
330
  0
LINE
  8
0
 10
0
 20
330
 11
-20.7209
 21
329.349
  0
LINE
  8
0
 10
-20.7209
 20
329.349
 11
-41.36
 21
327.398
  0
LINE
  8
0
 10
-41.36
 20
327.398
 11
-61.8358
 21
324.155
  0
LINE
  8
0
 10
-61.8358
 20
324.155
 11
-82.0677
 21
319.632
  0
LINE
  8
0
 10
-82.0677
 20
319.632
 11
-101.976
 21
313.849
  0
LINE
  8
0
 10
-101.976
 20
313.849
 11
-121.481
 21
306.826
  0
LINE
  8
0
 10
-121.481
 20
306.826
 11
-140.507
 21
298.593
  0
LINE
  8
0
 10
-140.507
 20
298.593
 11
-158.979
 21
289.181
  0
LINE
  8
0
 10
-158.979
 20
289.181
 11
-176.823
 21
278.628
  0
LINE
  8
0
 10
-176.823
 20
278.628
 11
-193.969
 21
266.976
  0
LINE
  8
0
 10
-193.969
 20
266.976
 11
-210.35
 21
254.269
  0
LINE
  8
0
 10
-210.35
 20
254.269
 11
-225.901
 21
240.56
  0
LINE
  8
0
 10
-225.901
 20
240.56
 11
-240.56
 21
225.901
  0
LINE
  8
0
 10
-240.56
 20
225.901
 11
-254.269
 21
210.35
  0
LINE
  8
0
 10
-254.269
 20
210.35
 11
-266.976
 21
193.969
  0
LINE
  8
0
 10
-266.976
 20
193.969
 11
-278.628
 21
176.823
  0
LINE
  8
0
 10
-278.628
 20
176.823
 11
-289.181
 21
158.979
  0
LINE
  8
0
 10
-289.181
 20
158.979
 11
-298.593
 21
140.507
  0
LINE
  8
0
 10
-298.593
 20
140.507
 11
-306.826
 21
121.481
  0
LINE
  8
0
 10
-306.826
 20
121.481
 11
-313.849
 21
101.976
  0
LINE
  8
0
 10
-313.849
 20
101.976
 11
-319.632
 21
82.0677
  0
LINE
  8
0
 10
-319.632
 20
82.0677
 11
-324.155
 21
61.8358
  0
LINE
  8
0
 10
-324.155
 20
61.8358
 11
-327.398
 21
41.36
  0
LINE
  8
0
 10
-327.398
 20
41.36
 11
-329.349
 21
20.7209
  0
LINE
  8
0
 10
-329.349
 20
20.7209
 11
-330
 21
0
  0
LINE
  8
0
 10
-330
 20
0
 11
-329.349
 21
-20.7209
  0
LINE
  8
0
 10
-329.349
 20
-20.7209
 11
-327.398
 21
-41.36
  0
LINE
  8
0
 10
-327.398
 20
-41.36
 11
-324.155
 21
-61.8358
  0
LINE
  8
0
 10
-324.155
 20
-61.8358
 11
-319.632
 21
-82.0677
  0
LINE
  8
0
 10
-319.632
 20
-82.0677
 11
-313.849
 21
-101.976
  0
LINE
  8
0
 10
-313.849
 20
-101.976
 11
-306.826
 21
-121.481
  0
LINE
  8
0
 10
-306.826
 20
-121.481
 11
-298.593
 21
-140.507
  0
LINE
  8
0
 10
-298.593
 20
-140.507
 11
-289.181
 21
-158.979
  0
LINE
  8
0
 10
-289.181
 20
-158.979
 11
-278.628
 21
-176.823
  0
LINE
  8
0
 10
-278.628
 20
-176.823
 11
-266.976
 21
-193.969
  0
LINE
  8
0
 10
-266.976
 20
-193.969
 11
-254.269
 21
-210.35
  0
LINE
  8
0
 10
-254.269
 20
-210.35
 11
-240.56
 21
-225.901
  0
LINE
  8
0
 10
-240.56
 20
-225.901
 11
-225.901
 21
-240.56
  0
LINE
  8
0
 10
-225.901
 20
-240.56
 11
-210.35
 21
-254.269
  0
LINE
  8
0
 10
-210.35
 20
-254.269
 11
-193.969
 21
-266.976
  0
LINE
  8
0
 10
-193.969
 20
-266.976
 11
-176.823
 21
-278.628
  0
LINE
  8
0
 10
-176.823
 20
-278.628
 11
-158.979
 21
-289.181
  0
LINE
  8
0
 10
-158.979
 20
-289.181
 11
-140.507
 21
-298.593
  0
LINE
  8
0
 10
-140.507
 20
-298.593
 11
-121.481
 21
-306.826
  0
LINE
  8
0
 10
-121.481
 20
-306.826
 11
-101.976
 21
-313.849
  0
LINE
  8
0
 10
-101.976
 20
-313.849
 11
-82.0677
 21
-319.632
  0
LINE
  8
0
 10
-82.0677
 20
-319.632
 11
-61.8358
 21
-324.155
  0
LINE
  8
0
 10
-61.8358
 20
-324.155
 11
-41.36
 21
-327.398
  0
LINE
  8
0
 10
-41.36
 20
-327.398
 11
-20.7209
 21
-329.349
  0
LINE
  8
0
 10
-20.7209
 20
-329.349
 11
0
 21
-330
  0
LINE
  8
0
 10
0
 20
-330
 11
20.7209
 21
-329.349
  0
LINE
  8
0
 10
-0.156967
 20
227.505
 11
-0.313324
 21
227.52
  0
LINE
  8
0
 10
-0.313324
 20
227.52
 11
-0.468445
 21
227.544
  0
LINE
  8
0
 10
-0.468445
 20
227.544
 11
-0.621719
 21
227.579
  0
LINE
  8
0
 10
-0.621719
 20
227.579
 11
-0.772537
 21
227.622
  0
LINE
  8
0
 10
-0.772537
 20
227.622
 11
-0.920303
 21
227.676
  0
LINE
  8
0
 10
-0.920303
 20
227.676
 11
-1.06444
 21
227.738
  0
LINE
  8
0
 10
-1.06444
 20
227.738
 11
-1.20438
 21
227.809
  0
LINE
  8
0
 10
-1.20438
 20
227.809
 11
-1.33955
 21
227.889
  0
LINE
  8
0
 10
-1.33955
 20
227.889
 11
-1.46945
 21
227.977
  0
LINE
  8
0
 10
-1.46945
 20
227.977
 11
-1.59355
 21
228.074
  0
LINE
  8
0
 10
-1.59355
 20
228.074
 11
-1.71136
 21
228.178
  0
LINE
  8
0
 10
-1.71136
 20
228.178
 11
-1.82242
 21
228.289
  0
LINE
  8
0
 10
-1.82242
 20
228.289
 11
-1.92627
 21
228.406
  0
LINE
  8
0
 10
-1.92627
 20
228.406
 11
-2.02254
 21
228.531
  0
LINE
  8
0
 10
-2.02254
 20
228.531
 11
-2.11081
 21
228.66
  0
LINE
  8
0
 10
-2.11081
 20
228.66
 11
-2.19077
 21
228.796
  0
LINE
  8
0
 10
-2.19077
 20
228.796
 11
-2.26205
 21
228.936
  0
LINE
  8
0
 10
-2.26205
 20
228.936
 11
-2.32443
 21
229.08
  0
LINE
  8
0
 10
-2.32443
 20
229.08
 11
-2.37764
 21
229.227
  0
LINE
  8
0
 10
-2.37764
 20
229.227
 11
-2.42145
 21
229.378
  0
LINE
  8
0
 10
-2.42145
 20
229.378
 11
-2.4557
 21
229.532
  0
LINE
  8
0
 10
-2.4557
 20
229.532
 11
-2.48029
 21
229.687
  0
LINE
  8
0
 10
-2.48029
 20
229.687
 11
-2.49506
 21
229.843
  0
LINE
  8
0
 10
-2.49506
 20
229.843
 11
-2.5
 21
230
  0
LINE
  8
0
 10
-2.5
 20
230
 11
-2.49506
 21
230.157
  0
LINE
  8
0
 10
-2.49506
 20
230.157
 11
-2.48029
 21
230.313
  0
LINE
  8
0
 10
-2.48029
 20
230.313
 11
-2.4557
 21
230.468
  0
LINE
  8
0
 10
-2.4557
 20
230.468
 11
-2.42145
 21
230.622
  0
LINE
  8
0
 10
-2.42145
 20
230.622
 11
-2.37764
 21
230.773
  0
LINE
  8
0
 10
-2.37764
 20
230.773
 11
-2.32443
 21
230.92
  0
LINE
  8
0
 10
-2.32443
 20
230.92
 11
-2.26205
 21
231.064
  0
LINE
  8
0
 10
-2.26205
 20
231.064
 11
-2.19077
 21
231.204
  0
LINE
  8
0
 10
-2.19077
 20
231.204
 11
-2.11081
 21
231.34
  0
LINE
  8
0
 10
-2.11081
 20
231.34
 11
-2.02254
 21
231.469
  0
LINE
  8
0
 10
-2.02254
 20
231.469
 11
-1.92627
 21
231.594
  0
LINE
  8
0
 10
-1.92627
 20
231.594
 11
-1.82242
 21
231.711
  0
LINE
  8
0
 10
-1.82242
 20
231.711
 11
-1.71136
 21
231.822
  0
LINE
  8
0
 10
-1.71136
 20
231.822
 11
-1.59355
 21
231.926
  0
LINE
  8
0
 10
-1.59355
 20
231.926
 11
-1.46945
 21
232.023
  0
LINE
  8
0
 10
-1.46945
 20
232.023
 11
-1.33955
 21
232.111
  0
LINE
  8
0
 10
-1.33955
 20
232.111
 11
-1.20438
 21
232.191
  0
LINE
  8
0
 10
-1.20438
 20
232.191
 11
-1.06444
 21
232.262
  0
LINE
  8
0
 10
-1.06444
 20
232.262
 11
-0.920303
 21
232.324
  0
LINE
  8
0
 10
-0.920303
 20
232.324
 11
-0.772537
 21
232.378
  0
LINE
  8
0
 10
-0.772537
 20
232.378
 11
-0.621719
 21
232.421
  0
LINE
  8
0
 10
-0.621719
 20
232.421
 11
-0.468445
 21
232.456
  0
LINE
  8
0
 10
-0.468445
 20
232.456
 11
-0.313324
 21
232.48
  0
LINE
  8
0
 10
-0.313324
 20
232.48
 11
-0.156967
 21
232.495
  0
LINE
  8
0
 10
-0.156967
 20
232.495
 11
0
 21
232.5
  0
LINE
  8
0
 10
0
 20
232.5
 11
0.156967
 21
232.495
  0
LINE
  8
0
 10
0.156967
 20
232.495
 11
0.313324
 21
232.48
  0
LINE
  8
0
 10
0.313324
 20
232.48
 11
0.468445
 21
232.456
  0
LINE
  8
0
 10
0.468445
 20
232.456
 11
0.621719
 21
232.421
  0
LINE
  8
0
 10
0.621719
 20
232.421
 11
0.772537
 21
232.378
  0
LINE
  8
0
 10
0.772537
 20
232.378
 11
0.920303
 21
232.324
  0
LINE
  8
0
 10
0.920303
 20
232.324
 11
1.06444
 21
232.262
  0
LINE
  8
0
 10
1.06444
 20
232.262
 11
1.20438
 21
232.191
  0
LINE
  8
0
 10
1.20438
 20
232.191
 11
1.33955
 21
232.111
  0
LINE
  8
0
 10
1.33955
 20
232.111
 11
1.46945
 21
232.023
  0
LINE
  8
0
 10
1.46945
 20
232.023
 11
1.59355
 21
231.926
  0
LINE
  8
0
 10
1.59355
 20
231.926
 11
1.71136
 21
231.822
  0
LINE
  8
0
 10
1.71136
 20
231.822
 11
1.82242
 21
231.711
  0
LINE
  8
0
 10
1.82242
 20
231.711
 11
1.92627
 21
231.594
  0
LINE
  8
0
 10
1.92627
 20
231.594
 11
2.02254
 21
231.469
  0
LINE
  8
0
 10
2.02254
 20
231.469
 11
2.11081
 21
231.34
  0
LINE
  8
0
 10
2.11081
 20
231.34
 11
2.19077
 21
231.204
  0
LINE
  8
0
 10
2.19077
 20
231.204
 11
2.26205
 21
231.064
  0
LINE
  8
0
 10
2.26205
 20
231.064
 11
2.32443
 21
230.92
  0
LINE
  8
0
 10
2.32443
 20
230.92
 11
2.37764
 21
230.773
  0
LINE
  8
0
 10
2.37764
 20
230.773
 11
2.42145
 21
230.622
  0
LINE
  8
0
 10
2.42145
 20
230.622
 11
2.4557
 21
230.468
  0
LINE
  8
0
 10
2.4557
 20
230.468
 11
2.48029
 21
230.313
  0
LINE
  8
0
 10
2.48029
 20
230.313
 11
2.49506
 21
230.157
  0
LINE
  8
0
 10
2.49506
 20
230.157
 11
2.5
 21
230
  0
LINE
  8
0
 10
2.5
 20
230
 11
2.49506
 21
229.843
  0
LINE
  8
0
 10
2.49506
 20
229.843
 11
2.48029
 21
229.687
  0
LINE
  8
0
 10
2.48029
 20
229.687
 11
2.4557
 21
229.532
  0
LINE
  8
0
 10
2.4557
 20
229.532
 11
2.42145
 21
229.378
  0
LINE
  8
0
 10
2.42145
 20
229.378
 11
2.37764
 21
229.227
  0
LINE
  8
0
 10
2.37764
 20
229.227
 11
2.32443
 21
229.08
  0
LINE
  8
0
 10
2.32443
 20
229.08
 11
2.26205
 21
228.936
  0
LINE
  8
0
 10
2.26205
 20
228.936
 11
2.19077
 21
228.796
  0
LINE
  8
0
 10
2.19077
 20
228.796
 11
2.11081
 21
228.66
  0
LINE
  8
0
 10
2.11081
 20
228.66
 11
2.02254
 21
228.531
  0
LINE
  8
0
 10
2.02254
 20
228.531
 11
1.92627
 21
228.406
  0
LINE
  8
0
 10
1.92627
 20
228.406
 11
1.82242
 21
228.289
  0
LINE
  8
0
 10
1.82242
 20
228.289
 11
1.71136
 21
228.178
  0
LINE
  8
0
 10
1.71136
 20
228.178
 11
1.59355
 21
228.074
  0
LINE
  8
0
 10
1.59355
 20
228.074
 11
1.46945
 21
227.977
  0
LINE
  8
0
 10
1.46945
 20
227.977
 11
1.33955
 21
227.889
  0
LINE
  8
0
 10
1.33955
 20
227.889
 11
1.20438
 21
227.809
  0
LINE
  8
0
 10
1.20438
 20
227.809
 11
1.06444
 21
227.738
  0
LINE
  8
0
 10
1.06444
 20
227.738
 11
0.920303
 21
227.676
  0
LINE
  8
0
 10
0.920303
 20
227.676
 11
0.772537
 21
227.622
  0
LINE
  8
0
 10
0.772537
 20
227.622
 11
0.621719
 21
227.579
  0
LINE
  8
0
 10
0.621719
 20
227.579
 11
0.468445
 21
227.544
  0
LINE
  8
0
 10
0.468445
 20
227.544
 11
0.313324
 21
227.52
  0
LINE
  8
0
 10
0.313324
 20
227.52
 11
0.156967
 21
227.505
  0
LINE
  8
0
 10
0.156967
 20
227.505
 11
0
 21
227.5
  0
LINE
  8
0
 10
0
 20
227.5
 11
-0.156967
 21
227.505
  0
LINE
  8
0
 10
-13.8139
 20
-219.566
 11
-27.5733
 21
-218.265
  0
LINE
  8
0
 10
-27.5733
 20
-218.265
 11
-41.2239
 21
-216.103
  0
LINE
  8
0
 10
-41.2239
 20
-216.103
 11
-54.7118
 21
-213.088
  0
LINE
  8
0
 10
-54.7118
 20
-213.088
 11
-67.9837
 21
-209.232
  0
LINE
  8
0
 10
-67.9837
 20
-209.232
 11
-80.9874
 21
-204.551
  0
LINE
  8
0
 10
-80.9874
 20
-204.551
 11
-93.6714
 21
-199.062
  0
LINE
  8
0
 10
-93.6714
 20
-199.062
 11
-105.986
 21
-192.787
  0
LINE
  8
0
 10
-105.986
 20
-192.787
 11
-117.882
 21
-185.752
  0
LINE
  8
0
 10
-117.882
 20
-185.752
 11
-129.313
 21
-177.984
  0
LINE
  8
0
 10
-129.313
 20
-177.984
 11
-140.233
 21
-169.513
  0
LINE
  8
0
 10
-140.233
 20
-169.513
 11
-150.6
 21
-160.373
  0
LINE
  8
0
 10
-150.6
 20
-160.373
 11
-160.373
 21
-150.6
  0
LINE
  8
0
 10
-160.373
 20
-150.6
 11
-169.513
 21
-140.233
  0
LINE
  8
0
 10
-169.513
 20
-140.233
 11
-177.984
 21
-129.313
  0
LINE
  8
0
 10
-177.984
 20
-129.313
 11
-185.752
 21
-117.882
  0
LINE
  8
0
 10
-185.752
 20
-117.882
 11
-192.787
 21
-105.986
  0
LINE
  8
0
 10
-192.787
 20
-105.986
 11
-199.062
 21
-93.6714
  0
LINE
  8
0
 10
-199.062
 20
-93.6714
 11
-204.551
 21
-80.9874
  0
LINE
  8
0
 10
-204.551
 20
-80.9874
 11
-209.232
 21
-67.9837
  0
LINE
  8
0
 10
-209.232
 20
-67.9837
 11
-213.088
 21
-54.7118
  0
LINE
  8
0
 10
-213.088
 20
-54.7118
 11
-216.103
 21
-41.2239
  0
LINE
  8
0
 10
-216.103
 20
-41.2239
 11
-218.265
 21
-27.5733
  0
LINE
  8
0
 10
-218.265
 20
-27.5733
 11
-219.566
 21
-13.8139
  0
LINE
  8
0
 10
-219.566
 20
-13.8139
 11
-220
 21
0
  0
LINE
  8
0
 10
-220
 20
0
 11
-219.566
 21
13.8139
  0
LINE
  8
0
 10
-219.566
 20
13.8139
 11
-218.265
 21
27.5733
  0
LINE
  8
0
 10
-218.265
 20
27.5733
 11
-216.103
 21
41.2239
  0
LINE
  8
0
 10
-216.103
 20
41.2239
 11
-213.088
 21
54.7118
  0
LINE
  8
0
 10
-213.088
 20
54.7118
 11
-209.232
 21
67.9837
  0
LINE
  8
0
 10
-209.232
 20
67.9837
 11
-204.551
 21
80.9874
  0
LINE
  8
0
 10
-204.551
 20
80.9874
 11
-199.062
 21
93.6714
  0
LINE
  8
0
 10
-199.062
 20
93.6714
 11
-192.787
 21
105.986
  0
LINE
  8
0
 10
-192.787
 20
105.986
 11
-185.752
 21
117.882
  0
LINE
  8
0
 10
-185.752
 20
117.882
 11
-177.984
 21
129.313
  0
LINE
  8
0
 10
-177.984
 20
129.313
 11
-169.513
 21
140.233
  0
LINE
  8
0
 10
-169.513
 20
140.233
 11
-160.373
 21
150.6
  0
LINE
  8
0
 10
-160.373
 20
150.6
 11
-150.6
 21
160.373
  0
LINE
  8
0
 10
-150.6
 20
160.373
 11
-140.233
 21
169.513
  0
LINE
  8
0
 10
-140.233
 20
169.513
 11
-129.313
 21
177.984
  0
LINE
  8
0
 10
-129.313
 20
177.984
 11
-117.882
 21
185.752
  0
LINE
  8
0
 10
-117.882
 20
185.752
 11
-105.986
 21
192.787
  0
LINE
  8
0
 10
-105.986
 20
192.787
 11
-93.6714
 21
199.062
  0
LINE
  8
0
 10
-93.6714
 20
199.062
 11
-80.9874
 21
204.551
  0
LINE
  8
0
 10
-80.9874
 20
204.551
 11
-67.9837
 21
209.232
  0
LINE
  8
0
 10
-67.9837
 20
209.232
 11
-54.7118
 21
213.088
  0
LINE
  8
0
 10
-54.7118
 20
213.088
 11
-41.2239
 21
216.103
  0
LINE
  8
0
 10
-41.2239
 20
216.103
 11
-27.5733
 21
218.265
  0
LINE
  8
0
 10
-27.5733
 20
218.265
 11
-13.8139
 21
219.566
  0
LINE
  8
0
 10
-13.8139
 20
219.566
 11
0
 21
220
  0
LINE
  8
0
 10
0
 20
220
 11
13.8139
 21
219.566
  0
LINE
  8
0
 10
13.8139
 20
219.566
 11
27.5733
 21
218.265
  0
LINE
  8
0
 10
27.5733
 20
218.265
 11
41.2239
 21
216.103
  0
LINE
  8
0
 10
41.2239
 20
216.103
 11
54.7118
 21
213.088
  0
LINE
  8
0
 10
54.7118
 20
213.088
 11
67.9837
 21
209.232
  0
LINE
  8
0
 10
67.9837
 20
209.232
 11
80.9874
 21
204.551
  0
LINE
  8
0
 10
80.9874
 20
204.551
 11
93.6714
 21
199.062
  0
LINE
  8
0
 10
93.6714
 20
199.062
 11
105.986
 21
192.787
  0
LINE
  8
0
 10
105.986
 20
192.787
 11
117.882
 21
185.752
  0
LINE
  8
0
 10
117.882
 20
185.752
 11
129.313
 21
177.984
  0
LINE
  8
0
 10
129.313
 20
177.984
 11
140.233
 21
169.513
  0
LINE
  8
0
 10
140.233
 20
169.513
 11
150.6
 21
160.373
  0
LINE
  8
0
 10
150.6
 20
160.373
 11
160.373
 21
150.6
  0
LINE
  8
0
 10
160.373
 20
150.6
 11
169.513
 21
140.233
  0
LINE
  8
0
 10
169.513
 20
140.233
 11
177.984
 21
129.313
  0
LINE
  8
0
 10
177.984
 20
129.313
 11
180
 21
126.346
  0
LINE
  8
0
 10
180
 20
126.346
 11
180
 21
-126.346
  0
LINE
  8
0
 10
180
 20
-126.346
 11
177.984
 21
-129.313
  0
LINE
  8
0
 10
177.984
 20
-129.313
 11
169.513
 21
-140.233
  0
LINE
  8
0
 10
169.513
 20
-140.233
 11
160.373
 21
-150.6
  0
LINE
  8
0
 10
160.373
 20
-150.6
 11
150.6
 21
-160.373
  0
LINE
  8
0
 10
150.6
 20
-160.373
 11
140.233
 21
-169.513
  0
LINE
  8
0
 10
140.233
 20
-169.513
 11
129.313
 21
-177.984
  0
LINE
  8
0
 10
129.313
 20
-177.984
 11
117.882
 21
-185.752
  0
LINE
  8
0
 10
117.882
 20
-185.752
 11
105.986
 21
-192.787
  0
LINE
  8
0
 10
105.986
 20
-192.787
 11
93.6714
 21
-199.062
  0
LINE
  8
0
 10
93.6714
 20
-199.062
 11
80.9874
 21
-204.551
  0
LINE
  8
0
 10
80.9874
 20
-204.551
 11
67.9837
 21
-209.232
  0
LINE
  8
0
 10
67.9837
 20
-209.232
 11
54.7118
 21
-213.088
  0
LINE
  8
0
 10
54.7118
 20
-213.088
 11
41.2239
 21
-216.103
  0
LINE
  8
0
 10
41.2239
 20
-216.103
 11
27.5733
 21
-218.265
  0
LINE
  8
0
 10
27.5733
 20
-218.265
 11
13.8139
 21
-219.566
  0
LINE
  8
0
 10
13.8139
 20
-219.566
 11
0
 21
-220
  0
LINE
  8
0
 10
0
 20
-220
 11
-13.8139
 21
-219.566
  0
LINE
  8
0
 10
200
 20
91.5037
 11
204.551
 21
80.9874
  0
LINE
  8
0
 10
204.551
 20
80.9874
 11
209.232
 21
67.9837
  0
LINE
  8
0
 10
209.232
 20
67.9837
 11
213.088
 21
54.7118
  0
LINE
  8
0
 10
213.088
 20
54.7118
 11
216.103
 21
41.2239
  0
LINE
  8
0
 10
216.103
 20
41.2239
 11
218.265
 21
27.5733
  0
LINE
  8
0
 10
218.265
 20
27.5733
 11
219.566
 21
13.8139
  0
LINE
  8
0
 10
219.566
 20
13.8139
 11
220
 21
0
  0
LINE
  8
0
 10
220
 20
0
 11
219.566
 21
-13.8139
  0
LINE
  8
0
 10
219.566
 20
-13.8139
 11
218.265
 21
-27.5733
  0
LINE
  8
0
 10
218.265
 20
-27.5733
 11
216.103
 21
-41.2239
  0
LINE
  8
0
 10
216.103
 20
-41.2239
 11
213.088
 21
-54.7118
  0
LINE
  8
0
 10
213.088
 20
-54.7118
 11
209.232
 21
-67.9837
  0
LINE
  8
0
 10
209.232
 20
-67.9837
 11
204.551
 21
-80.9874
  0
LINE
  8
0
 10
204.551
 20
-80.9874
 11
200
 21
-91.5037
  0
LINE
  8
0
 10
200
 20
-91.5037
 11
200
 21
91.5037
  0
LINE
  8
0
 10
284.309
 20
-10.9783
 11
283.621
 21
-10.9133
  0
LINE
  8
0
 10
283.621
 20
-10.9133
 11
282.939
 21
-10.8051
  0
LINE
  8
0
 10
282.939
 20
-10.8051
 11
282.264
 21
-10.6544
  0
LINE
  8
0
 10
282.264
 20
-10.6544
 11
281.601
 21
-10.4616
  0
LINE
  8
0
 10
281.601
 20
-10.4616
 11
280.951
 21
-10.2275
  0
LINE
  8
0
 10
280.951
 20
-10.2275
 11
280.316
 21
-9.95309
  0
LINE
  8
0
 10
280.316
 20
-9.95309
 11
279.701
 21
-9.63936
  0
LINE
  8
0
 10
279.701
 20
-9.63936
 11
279.106
 21
-9.2876
  0
LINE
  8
0
 10
279.106
 20
-9.2876
 11
278.534
 21
-8.89919
  0
LINE
  8
0
 10
278.534
 20
-8.89919
 11
277.988
 21
-8.47563
  0
LINE
  8
0
 10
277.988
 20
-8.47563
 11
277.47
 21
-8.01865
  0
LINE
  8
0
 10
277.47
 20
-8.01865
 11
276.981
 21
-7.53001
  0
LINE
  8
0
 10
276.981
 20
-7.53001
 11
276.524
 21
-7.01166
  0
LINE
  8
0
 10
276.524
 20
-7.01166
 11
276.101
 21
-6.46564
  0
LINE
  8
0
 10
276.101
 20
-6.46564
 11
275.712
 21
-5.89409
  0
LINE
  8
0
 10
275.712
 20
-5.89409
 11
275.361
 21
-5.29929
  0
LINE
  8
0
 10
275.361
 20
-5.29929
 11
275.047
 21
-4.68356
  0
LINE
  8
0
 10
275.047
 20
-4.68356
 11
274.772
 21
-4.04936
  0
LINE
  8
0
 10
274.772
 20
-4.04936
 11
274.538
 21
-3.39919
  0
LINE
  8
0
 10
274.538
 20
-3.39919
 11
274.346
 21
-2.73558
  0
LINE
  8
0
 10
274.346
 20
-2.73558
 11
274.195
 21
-2.06119
  0
LINE
  8
0
 10
274.195
 20
-2.06119
 11
274.087
 21
-1.37866
  0
LINE
  8
0
 10
274.087
 20
-1.37866
 11
274.022
 21
-0.690689
  0
LINE
  8
0
 10
274.022
 20
-0.690689
 11
274
 21
0
  0
LINE
  8
0
 10
274
 20
0
 11
274.022
 21
0.690689
  0
LINE
  8
0
 10
274.022
 20
0.690689
 11
274.087
 21
1.37866
  0
LINE
  8
0
 10
274.087
 20
1.37866
 11
274.195
 21
2.06119
  0
LINE
  8
0
 10
274.195
 20
2.06119
 11
274.346
 21
2.73558
  0
LINE
  8
0
 10
274.346
 20
2.73558
 11
274.538
 21
3.39919
  0
LINE
  8
0
 10
274.538
 20
3.39919
 11
274.772
 21
4.04936
  0
LINE
  8
0
 10
274.772
 20
4.04936
 11
275.047
 21
4.68356
  0
LINE
  8
0
 10
275.047
 20
4.68356
 11
275.361
 21
5.29929
  0
LINE
  8
0
 10
275.361
 20
5.29929
 11
275.712
 21
5.89409
  0
LINE
  8
0
 10
275.712
 20
5.89409
 11
276.101
 21
6.46564
  0
LINE
  8
0
 10
276.101
 20
6.46564
 11
276.524
 21
7.01166
  0
LINE
  8
0
 10
276.524
 20
7.01166
 11
276.981
 21
7.53001
  0
LINE
  8
0
 10
276.981
 20
7.53001
 11
277.47
 21
8.01865
  0
LINE
  8
0
 10
277.47
 20
8.01865
 11
277.988
 21
8.47563
  0
LINE
  8
0
 10
277.988
 20
8.47563
 11
278.534
 21
8.89919
  0
LINE
  8
0
 10
278.534
 20
8.89919
 11
279.106
 21
9.2876
  0
LINE
  8
0
 10
279.106
 20
9.2876
 11
279.701
 21
9.63936
  0
LINE
  8
0
 10
279.701
 20
9.63936
 11
280.316
 21
9.95309
  0
LINE
  8
0
 10
280.316
 20
9.95309
 11
280.951
 21
10.2275
  0
LINE
  8
0
 10
280.951
 20
10.2275
 11
281.601
 21
10.4616
  0
LINE
  8
0
 10
281.601
 20
10.4616
 11
282.264
 21
10.6544
  0
LINE
  8
0
 10
282.264
 20
10.6544
 11
282.939
 21
10.8051
  0
LINE
  8
0
 10
282.939
 20
10.8051
 11
283.621
 21
10.9133
  0
LINE
  8
0
 10
283.621
 20
10.9133
 11
284.309
 21
10.9783
  0
LINE
  8
0
 10
284.309
 20
10.9783
 11
285
 21
11
  0
LINE
  8
0
 10
285
 20
11
 11
285.691
 21
10.9783
  0
LINE
  8
0
 10
285.691
 20
10.9783
 11
286.379
 21
10.9133
  0
LINE
  8
0
 10
286.379
 20
10.9133
 11
287.061
 21
10.8051
  0
LINE
  8
0
 10
287.061
 20
10.8051
 11
287.736
 21
10.6544
  0
LINE
  8
0
 10
287.736
 20
10.6544
 11
288.399
 21
10.4616
  0
LINE
  8
0
 10
288.399
 20
10.4616
 11
289.049
 21
10.2275
  0
LINE
  8
0
 10
289.049
 20
10.2275
 11
289.684
 21
9.95309
  0
LINE
  8
0
 10
289.684
 20
9.95309
 11
290.299
 21
9.63936
  0
LINE
  8
0
 10
290.299
 20
9.63936
 11
290.894
 21
9.2876
  0
LINE
  8
0
 10
290.894
 20
9.2876
 11
291.466
 21
8.89919
  0
LINE
  8
0
 10
291.466
 20
8.89919
 11
292.012
 21
8.47563
  0
LINE
  8
0
 10
292.012
 20
8.47563
 11
292.53
 21
8.01865
  0
LINE
  8
0
 10
292.53
 20
8.01865
 11
293.019
 21
7.53001
  0
LINE
  8
0
 10
293.019
 20
7.53001
 11
293.476
 21
7.01166
  0
LINE
  8
0
 10
293.476
 20
7.01166
 11
293.899
 21
6.46564
  0
LINE
  8
0
 10
293.899
 20
6.46564
 11
294.288
 21
5.89409
  0
LINE
  8
0
 10
294.288
 20
5.89409
 11
294.639
 21
5.29929
  0
LINE
  8
0
 10
294.639
 20
5.29929
 11
294.953
 21
4.68356
  0
LINE
  8
0
 10
294.953
 20
4.68356
 11
295.228
 21
4.04936
  0
LINE
  8
0
 10
295.228
 20
4.04936
 11
295.462
 21
3.39919
  0
LINE
  8
0
 10
295.462
 20
3.39919
 11
295.654
 21
2.73558
  0
LINE
  8
0
 10
295.654
 20
2.73558
 11
295.805
 21
2.06119
  0
LINE
  8
0
 10
295.805
 20
2.06119
 11
295.913
 21
1.37866
  0
LINE
  8
0
 10
295.913
 20
1.37866
 11
295.978
 21
0.690689
  0
LINE
  8
0
 10
295.978
 20
0.690689
 11
296
 21
0
  0
LINE
  8
0
 10
296
 20
0
 11
295.978
 21
-0.690689
  0
LINE
  8
0
 10
295.978
 20
-0.690689
 11
295.913
 21
-1.37866
  0
LINE
  8
0
 10
295.913
 20
-1.37866
 11
295.805
 21
-2.06119
  0
LINE
  8
0
 10
295.805
 20
-2.06119
 11
295.654
 21
-2.73558
  0
LINE
  8
0
 10
295.654
 20
-2.73558
 11
295.462
 21
-3.39919
  0
LINE
  8
0
 10
295.462
 20
-3.39919
 11
295.228
 21
-4.04936
  0
LINE
  8
0
 10
295.228
 20
-4.04936
 11
294.953
 21
-4.68356
  0
LINE
  8
0
 10
294.953
 20
-4.68356
 11
294.639
 21
-5.29929
  0
LINE
  8
0
 10
294.639
 20
-5.29929
 11
294.288
 21
-5.89409
  0
LINE
  8
0
 10
294.288
 20
-5.89409
 11
293.899
 21
-6.46564
  0
LINE
  8
0
 10
293.899
 20
-6.46564
 11
293.476
 21
-7.01166
  0
LINE
  8
0
 10
293.476
 20
-7.01166
 11
293.019
 21
-7.53001
  0
LINE
  8
0
 10
293.019
 20
-7.53001
 11
292.53
 21
-8.01865
  0
LINE
  8
0
 10
292.53
 20
-8.01865
 11
292.012
 21
-8.47563
  0
LINE
  8
0
 10
292.012
 20
-8.47563
 11
291.466
 21
-8.89919
  0
LINE
  8
0
 10
291.466
 20
-8.89919
 11
290.894
 21
-9.2876
  0
LINE
  8
0
 10
290.894
 20
-9.2876
 11
290.299
 21
-9.63936
  0
LINE
  8
0
 10
290.299
 20
-9.63936
 11
289.684
 21
-9.95309
  0
LINE
  8
0
 10
289.684
 20
-9.95309
 11
289.049
 21
-10.2275
  0
LINE
  8
0
 10
289.049
 20
-10.2275
 11
288.399
 21
-10.4616
  0
LINE
  8
0
 10
288.399
 20
-10.4616
 11
287.736
 21
-10.6544
  0
LINE
  8
0
 10
287.736
 20
-10.6544
 11
287.061
 21
-10.8051
  0
LINE
  8
0
 10
287.061
 20
-10.8051
 11
286.379
 21
-10.9133
  0
LINE
  8
0
 10
286.379
 20
-10.9133
 11
285.691
 21
-10.9783
  0
LINE
  8
0
 10
285.691
 20
-10.9783
 11
285
 21
-11
  0
LINE
  8
0
 10
285
 20
-11
 11
284.309
 21
-10.9783
  0
LINE
  8
0
 10
-230.157
 20
-2.49506
 11
-230.313
 21
-2.48029
  0
LINE
  8
0
 10
-230.313
 20
-2.48029
 11
-230.468
 21
-2.4557
  0
LINE
  8
0
 10
-230.468
 20
-2.4557
 11
-230.622
 21
-2.42145
  0
LINE
  8
0
 10
-230.622
 20
-2.42145
 11
-230.773
 21
-2.37764
  0
LINE
  8
0
 10
-230.773
 20
-2.37764
 11
-230.92
 21
-2.32443
  0
LINE
  8
0
 10
-230.92
 20
-2.32443
 11
-231.064
 21
-2.26205
  0
LINE
  8
0
 10
-231.064
 20
-2.26205
 11
-231.204
 21
-2.19077
  0
LINE
  8
0
 10
-231.204
 20
-2.19077
 11
-231.34
 21
-2.11081
  0
LINE
  8
0
 10
-231.34
 20
-2.11081
 11
-231.469
 21
-2.02254
  0
LINE
  8
0
 10
-231.469
 20
-2.02254
 11
-231.594
 21
-1.92627
  0
LINE
  8
0
 10
-231.594
 20
-1.92627
 11
-231.711
 21
-1.82242
  0
LINE
  8
0
 10
-231.711
 20
-1.82242
 11
-231.822
 21
-1.71136
  0
LINE
  8
0
 10
-231.822
 20
-1.71136
 11
-231.926
 21
-1.59355
  0
LINE
  8
0
 10
-231.926
 20
-1.59355
 11
-232.023
 21
-1.46945
  0
LINE
  8
0
 10
-232.023
 20
-1.46945
 11
-232.111
 21
-1.33955
  0
LINE
  8
0
 10
-232.111
 20
-1.33955
 11
-232.191
 21
-1.20438
  0
LINE
  8
0
 10
-232.191
 20
-1.20438
 11
-232.262
 21
-1.06444
  0
LINE
  8
0
 10
-232.262
 20
-1.06444
 11
-232.324
 21
-0.920303
  0
LINE
  8
0
 10
-232.324
 20
-0.920303
 11
-232.378
 21
-0.772537
  0
LINE
  8
0
 10
-232.378
 20
-0.772537
 11
-232.421
 21
-0.621719
  0
LINE
  8
0
 10
-232.421
 20
-0.621719
 11
-232.456
 21
-0.468445
  0
LINE
  8
0
 10
-232.456
 20
-0.468445
 11
-232.48
 21
-0.313324
  0
LINE
  8
0
 10
-232.48
 20
-0.313324
 11
-232.495
 21
-0.156967
  0
LINE
  8
0
 10
-232.495
 20
-0.156967
 11
-232.5
 21
0
  0
LINE
  8
0
 10
-232.5
 20
0
 11
-232.495
 21
0.156967
  0
LINE
  8
0
 10
-232.495
 20
0.156967
 11
-232.48
 21
0.313324
  0
LINE
  8
0
 10
-232.48
 20
0.313324
 11
-232.456
 21
0.468445
  0
LINE
  8
0
 10
-232.456
 20
0.468445
 11
-232.421
 21
0.621719
  0
LINE
  8
0
 10
-232.421
 20
0.621719
 11
-232.378
 21
0.772537
  0
LINE
  8
0
 10
-232.378
 20
0.772537
 11
-232.324
 21
0.920303
  0
LINE
  8
0
 10
-232.324
 20
0.920303
 11
-232.262
 21
1.06444
  0
LINE
  8
0
 10
-232.262
 20
1.06444
 11
-232.191
 21
1.20438
  0
LINE
  8
0
 10
-232.191
 20
1.20438
 11
-232.111
 21
1.33955
  0
LINE
  8
0
 10
-232.111
 20
1.33955
 11
-232.023
 21
1.46945
  0
LINE
  8
0
 10
-232.023
 20
1.46945
 11
-231.926
 21
1.59355
  0
LINE
  8
0
 10
-231.926
 20
1.59355
 11
-231.822
 21
1.71136
  0
LINE
  8
0
 10
-231.822
 20
1.71136
 11
-231.711
 21
1.82242
  0
LINE
  8
0
 10
-231.711
 20
1.82242
 11
-231.594
 21
1.92627
  0
LINE
  8
0
 10
-231.594
 20
1.92627
 11
-231.469
 21
2.02254
  0
LINE
  8
0
 10
-231.469
 20
2.02254
 11
-231.34
 21
2.11081
  0
LINE
  8
0
 10
-231.34
 20
2.11081
 11
-231.204
 21
2.19077
  0
LINE
  8
0
 10
-231.204
 20
2.19077
 11
-231.064
 21
2.26205
  0
LINE
  8
0
 10
-231.064
 20
2.26205
 11
-230.92
 21
2.32443
  0
LINE
  8
0
 10
-230.92
 20
2.32443
 11
-230.773
 21
2.37764
  0
LINE
  8
0
 10
-230.773
 20
2.37764
 11
-230.622
 21
2.42145
  0
LINE
  8
0
 10
-230.622
 20
2.42145
 11
-230.468
 21
2.4557
  0
LINE
  8
0
 10
-230.468
 20
2.4557
 11
-230.313
 21
2.48029
  0
LINE
  8
0
 10
-230.313
 20
2.48029
 11
-230.157
 21
2.49506
  0
LINE
  8
0
 10
-230.157
 20
2.49506
 11
-230
 21
2.5
  0
LINE
  8
0
 10
-230
 20
2.5
 11
-229.843
 21
2.49506
  0
LINE
  8
0
 10
-229.843
 20
2.49506
 11
-229.687
 21
2.48029
  0
LINE
  8
0
 10
-229.687
 20
2.48029
 11
-229.532
 21
2.4557
  0
LINE
  8
0
 10
-229.532
 20
2.4557
 11
-229.378
 21
2.42145
  0
LINE
  8
0
 10
-229.378
 20
2.42145
 11
-229.227
 21
2.37764
  0
LINE
  8
0
 10
-229.227
 20
2.37764
 11
-229.08
 21
2.32443
  0
LINE
  8
0
 10
-229.08
 20
2.32443
 11
-228.936
 21
2.26205
  0
LINE
  8
0
 10
-228.936
 20
2.26205
 11
-228.796
 21
2.19077
  0
LINE
  8
0
 10
-228.796
 20
2.19077
 11
-228.66
 21
2.11081
  0
LINE
  8
0
 10
-228.66
 20
2.11081
 11
-228.531
 21
2.02254
  0
LINE
  8
0
 10
-228.531
 20
2.02254
 11
-228.406
 21
1.92627
  0
LINE
  8
0
 10
-228.406
 20
1.92627
 11
-228.289
 21
1.82242
  0
LINE
  8
0
 10
-228.289
 20
1.82242
 11
-228.178
 21
1.71136
  0
LINE
  8
0
 10
-228.178
 20
1.71136
 11
-228.074
 21
1.59355
  0
LINE
  8
0
 10
-228.074
 20
1.59355
 11
-227.977
 21
1.46945
  0
LINE
  8
0
 10
-227.977
 20
1.46945
 11
-227.889
 21
1.33955
  0
LINE
  8
0
 10
-227.889
 20
1.33955
 11
-227.809
 21
1.20438
  0
LINE
  8
0
 10
-227.809
 20
1.20438
 11
-227.738
 21
1.06444
  0
LINE
  8
0
 10
-227.738
 20
1.06444
 11
-227.676
 21
0.920303
  0
LINE
  8
0
 10
-227.676
 20
0.920303
 11
-227.622
 21
0.772537
  0
LINE
  8
0
 10
-227.622
 20
0.772537
 11
-227.579
 21
0.621719
  0
LINE
  8
0
 10
-227.579
 20
0.621719
 11
-227.544
 21
0.468445
  0
LINE
  8
0
 10
-227.544
 20
0.468445
 11
-227.52
 21
0.313324
  0
LINE
  8
0
 10
-227.52
 20
0.313324
 11
-227.505
 21
0.156967
  0
LINE
  8
0
 10
-227.505
 20
0.156967
 11
-227.5
 21
0
  0
LINE
  8
0
 10
-227.5
 20
0
 11
-227.505
 21
-0.156967
  0
LINE
  8
0
 10
-227.505
 20
-0.156967
 11
-227.52
 21
-0.313324
  0
LINE
  8
0
 10
-227.52
 20
-0.313324
 11
-227.544
 21
-0.468445
  0
LINE
  8
0
 10
-227.544
 20
-0.468445
 11
-227.579
 21
-0.621719
  0
LINE
  8
0
 10
-227.579
 20
-0.621719
 11
-227.622
 21
-0.772537
  0
LINE
  8
0
 10
-227.622
 20
-0.772537
 11
-227.676
 21
-0.920303
  0
LINE
  8
0
 10
-227.676
 20
-0.920303
 11
-227.738
 21
-1.06444
  0
LINE
  8
0
 10
-227.738
 20
-1.06444
 11
-227.809
 21
-1.20438
  0
LINE
  8
0
 10
-227.809
 20
-1.20438
 11
-227.889
 21
-1.33955
  0
LINE
  8
0
 10
-227.889
 20
-1.33955
 11
-227.977
 21
-1.46945
  0
LINE
  8
0
 10
-227.977
 20
-1.46945
 11
-228.074
 21
-1.59355
  0
LINE
  8
0
 10
-228.074
 20
-1.59355
 11
-228.178
 21
-1.71136
  0
LINE
  8
0
 10
-228.178
 20
-1.71136
 11
-228.289
 21
-1.82242
  0
LINE
  8
0
 10
-228.289
 20
-1.82242
 11
-228.406
 21
-1.92627
  0
LINE
  8
0
 10
-228.406
 20
-1.92627
 11
-228.531
 21
-2.02254
  0
LINE
  8
0
 10
-228.531
 20
-2.02254
 11
-228.66
 21
-2.11081
  0
LINE
  8
0
 10
-228.66
 20
-2.11081
 11
-228.796
 21
-2.19077
  0
LINE
  8
0
 10
-228.796
 20
-2.19077
 11
-228.936
 21
-2.26205
  0
LINE
  8
0
 10
-228.936
 20
-2.26205
 11
-229.08
 21
-2.32443
  0
LINE
  8
0
 10
-229.08
 20
-2.32443
 11
-229.227
 21
-2.37764
  0
LINE
  8
0
 10
-229.227
 20
-2.37764
 11
-229.378
 21
-2.42145
  0
LINE
  8
0
 10
-229.378
 20
-2.42145
 11
-229.532
 21
-2.4557
  0
LINE
  8
0
 10
-229.532
 20
-2.4557
 11
-229.687
 21
-2.48029
  0
LINE
  8
0
 10
-229.687
 20
-2.48029
 11
-229.843
 21
-2.49506
  0
LINE
  8
0
 10
-229.843
 20
-2.49506
 11
-230
 21
-2.5
  0
LINE
  8
0
 10
-230
 20
-2.5
 11
-230.157
 21
-2.49506
  0
LINE
  8
0
 10
229.843
 20
-2.49506
 11
229.687
 21
-2.48029
  0
LINE
  8
0
 10
229.687
 20
-2.48029
 11
229.532
 21
-2.4557
  0
LINE
  8
0
 10
229.532
 20
-2.4557
 11
229.378
 21
-2.42145
  0
LINE
  8
0
 10
229.378
 20
-2.42145
 11
229.227
 21
-2.37764
  0
LINE
  8
0
 10
229.227
 20
-2.37764
 11
229.08
 21
-2.32443
  0
LINE
  8
0
 10
229.08
 20
-2.32443
 11
228.936
 21
-2.26205
  0
LINE
  8
0
 10
228.936
 20
-2.26205
 11
228.796
 21
-2.19077
  0
LINE
  8
0
 10
228.796
 20
-2.19077
 11
228.66
 21
-2.11081
  0
LINE
  8
0
 10
228.66
 20
-2.11081
 11
228.531
 21
-2.02254
  0
LINE
  8
0
 10
228.531
 20
-2.02254
 11
228.406
 21
-1.92627
  0
LINE
  8
0
 10
228.406
 20
-1.92627
 11
228.289
 21
-1.82242
  0
LINE
  8
0
 10
228.289
 20
-1.82242
 11
228.178
 21
-1.71136
  0
LINE
  8
0
 10
228.178
 20
-1.71136
 11
228.074
 21
-1.59355
  0
LINE
  8
0
 10
228.074
 20
-1.59355
 11
227.977
 21
-1.46945
  0
LINE
  8
0
 10
227.977
 20
-1.46945
 11
227.889
 21
-1.33955
  0
LINE
  8
0
 10
227.889
 20
-1.33955
 11
227.809
 21
-1.20438
  0
LINE
  8
0
 10
227.809
 20
-1.20438
 11
227.738
 21
-1.06444
  0
LINE
  8
0
 10
227.738
 20
-1.06444
 11
227.676
 21
-0.920303
  0
LINE
  8
0
 10
227.676
 20
-0.920303
 11
227.622
 21
-0.772537
  0
LINE
  8
0
 10
227.622
 20
-0.772537
 11
227.579
 21
-0.621719
  0
LINE
  8
0
 10
227.579
 20
-0.621719
 11
227.544
 21
-0.468445
  0
LINE
  8
0
 10
227.544
 20
-0.468445
 11
227.52
 21
-0.313324
  0
LINE
  8
0
 10
227.52
 20
-0.313324
 11
227.505
 21
-0.156967
  0
LINE
  8
0
 10
227.505
 20
-0.156967
 11
227.5
 21
0
  0
LINE
  8
0
 10
227.5
 20
0
 11
227.505
 21
0.156967
  0
LINE
  8
0
 10
227.505
 20
0.156967
 11
227.52
 21
0.313324
  0
LINE
  8
0
 10
227.52
 20
0.313324
 11
227.544
 21
0.468445
  0
LINE
  8
0
 10
227.544
 20
0.468445
 11
227.579
 21
0.621719
  0
LINE
  8
0
 10
227.579
 20
0.621719
 11
227.622
 21
0.772537
  0
LINE
  8
0
 10
227.622
 20
0.772537
 11
227.676
 21
0.920303
  0
LINE
  8
0
 10
227.676
 20
0.920303
 11
227.738
 21
1.06444
  0
LINE
  8
0
 10
227.738
 20
1.06444
 11
227.809
 21
1.20438
  0
LINE
  8
0
 10
227.809
 20
1.20438
 11
227.889
 21
1.33955
  0
LINE
  8
0
 10
227.889
 20
1.33955
 11
227.977
 21
1.46945
  0
LINE
  8
0
 10
227.977
 20
1.46945
 11
228.074
 21
1.59355
  0
LINE
  8
0
 10
228.074
 20
1.59355
 11
228.178
 21
1.71136
  0
LINE
  8
0
 10
228.178
 20
1.71136
 11
228.289
 21
1.82242
  0
LINE
  8
0
 10
228.289
 20
1.82242
 11
228.406
 21
1.92627
  0
LINE
  8
0
 10
228.406
 20
1.92627
 11
228.531
 21
2.02254
  0
LINE
  8
0
 10
228.531
 20
2.02254
 11
228.66
 21
2.11081
  0
LINE
  8
0
 10
228.66
 20
2.11081
 11
228.796
 21
2.19077
  0
LINE
  8
0
 10
228.796
 20
2.19077
 11
228.936
 21
2.26205
  0
LINE
  8
0
 10
228.936
 20
2.26205
 11
229.08
 21
2.32443
  0
LINE
  8
0
 10
229.08
 20
2.32443
 11
229.227
 21
2.37764
  0
LINE
  8
0
 10
229.227
 20
2.37764
 11
229.378
 21
2.42145
  0
LINE
  8
0
 10
229.378
 20
2.42145
 11
229.532
 21
2.4557
  0
LINE
  8
0
 10
229.532
 20
2.4557
 11
229.687
 21
2.48029
  0
LINE
  8
0
 10
229.687
 20
2.48029
 11
229.843
 21
2.49506
  0
LINE
  8
0
 10
229.843
 20
2.49506
 11
230
 21
2.5
  0
LINE
  8
0
 10
230
 20
2.5
 11
230.157
 21
2.49506
  0
LINE
  8
0
 10
230.157
 20
2.49506
 11
230.313
 21
2.48029
  0
LINE
  8
0
 10
230.313
 20
2.48029
 11
230.468
 21
2.4557
  0
LINE
  8
0
 10
230.468
 20
2.4557
 11
230.622
 21
2.42145
  0
LINE
  8
0
 10
230.622
 20
2.42145
 11
230.773
 21
2.37764
  0
LINE
  8
0
 10
230.773
 20
2.37764
 11
230.92
 21
2.32443
  0
LINE
  8
0
 10
230.92
 20
2.32443
 11
231.064
 21
2.26205
  0
LINE
  8
0
 10
231.064
 20
2.26205
 11
231.204
 21
2.19077
  0
LINE
  8
0
 10
231.204
 20
2.19077
 11
231.34
 21
2.11081
  0
LINE
  8
0
 10
231.34
 20
2.11081
 11
231.469
 21
2.02254
  0
LINE
  8
0
 10
231.469
 20
2.02254
 11
231.594
 21
1.92627
  0
LINE
  8
0
 10
231.594
 20
1.92627
 11
231.711
 21
1.82242
  0
LINE
  8
0
 10
231.711
 20
1.82242
 11
231.822
 21
1.71136
  0
LINE
  8
0
 10
231.822
 20
1.71136
 11
231.926
 21
1.59355
  0
LINE
  8
0
 10
231.926
 20
1.59355
 11
232.023
 21
1.46945
  0
LINE
  8
0
 10
232.023
 20
1.46945
 11
232.111
 21
1.33955
  0
LINE
  8
0
 10
232.111
 20
1.33955
 11
232.191
 21
1.20438
  0
LINE
  8
0
 10
232.191
 20
1.20438
 11
232.262
 21
1.06444
  0
LINE
  8
0
 10
232.262
 20
1.06444
 11
232.324
 21
0.920303
  0
LINE
  8
0
 10
232.324
 20
0.920303
 11
232.378
 21
0.772537
  0
LINE
  8
0
 10
232.378
 20
0.772537
 11
232.421
 21
0.621719
  0
LINE
  8
0
 10
232.421
 20
0.621719
 11
232.456
 21
0.468445
  0
LINE
  8
0
 10
232.456
 20
0.468445
 11
232.48
 21
0.313324
  0
LINE
  8
0
 10
232.48
 20
0.313324
 11
232.495
 21
0.156967
  0
LINE
  8
0
 10
232.495
 20
0.156967
 11
232.5
 21
0
  0
LINE
  8
0
 10
232.5
 20
0
 11
232.495
 21
-0.156967
  0
LINE
  8
0
 10
232.495
 20
-0.156967
 11
232.48
 21
-0.313324
  0
LINE
  8
0
 10
232.48
 20
-0.313324
 11
232.456
 21
-0.468445
  0
LINE
  8
0
 10
232.456
 20
-0.468445
 11
232.421
 21
-0.621719
  0
LINE
  8
0
 10
232.421
 20
-0.621719
 11
232.378
 21
-0.772537
  0
LINE
  8
0
 10
232.378
 20
-0.772537
 11
232.324
 21
-0.920303
  0
LINE
  8
0
 10
232.324
 20
-0.920303
 11
232.262
 21
-1.06444
  0
LINE
  8
0
 10
232.262
 20
-1.06444
 11
232.191
 21
-1.20438
  0
LINE
  8
0
 10
232.191
 20
-1.20438
 11
232.111
 21
-1.33955
  0
LINE
  8
0
 10
232.111
 20
-1.33955
 11
232.023
 21
-1.46945
  0
LINE
  8
0
 10
232.023
 20
-1.46945
 11
231.926
 21
-1.59355
  0
LINE
  8
0
 10
231.926
 20
-1.59355
 11
231.822
 21
-1.71136
  0
LINE
  8
0
 10
231.822
 20
-1.71136
 11
231.711
 21
-1.82242
  0
LINE
  8
0
 10
231.711
 20
-1.82242
 11
231.594
 21
-1.92627
  0
LINE
  8
0
 10
231.594
 20
-1.92627
 11
231.469
 21
-2.02254
  0
LINE
  8
0
 10
231.469
 20
-2.02254
 11
231.34
 21
-2.11081
  0
LINE
  8
0
 10
231.34
 20
-2.11081
 11
231.204
 21
-2.19077
  0
LINE
  8
0
 10
231.204
 20
-2.19077
 11
231.064
 21
-2.26205
  0
LINE
  8
0
 10
231.064
 20
-2.26205
 11
230.92
 21
-2.32443
  0
LINE
  8
0
 10
230.92
 20
-2.32443
 11
230.773
 21
-2.37764
  0
LINE
  8
0
 10
230.773
 20
-2.37764
 11
230.622
 21
-2.42145
  0
LINE
  8
0
 10
230.622
 20
-2.42145
 11
230.468
 21
-2.4557
  0
LINE
  8
0
 10
230.468
 20
-2.4557
 11
230.313
 21
-2.48029
  0
LINE
  8
0
 10
230.313
 20
-2.48029
 11
230.157
 21
-2.49506
  0
LINE
  8
0
 10
230.157
 20
-2.49506
 11
230
 21
-2.5
  0
LINE
  8
0
 10
230
 20
-2.5
 11
229.843
 21
-2.49506
  0
LINE
  8
0
 10
-0.156967
 20
-232.495
 11
-0.313324
 21
-232.48
  0
LINE
  8
0
 10
-0.313324
 20
-232.48
 11
-0.468445
 21
-232.456
  0
LINE
  8
0
 10
-0.468445
 20
-232.456
 11
-0.621719
 21
-232.421
  0
LINE
  8
0
 10
-0.621719
 20
-232.421
 11
-0.772537
 21
-232.378
  0
LINE
  8
0
 10
-0.772537
 20
-232.378
 11
-0.920303
 21
-232.324
  0
LINE
  8
0
 10
-0.920303
 20
-232.324
 11
-1.06444
 21
-232.262
  0
LINE
  8
0
 10
-1.06444
 20
-232.262
 11
-1.20438
 21
-232.191
  0
LINE
  8
0
 10
-1.20438
 20
-232.191
 11
-1.33955
 21
-232.111
  0
LINE
  8
0
 10
-1.33955
 20
-232.111
 11
-1.46945
 21
-232.023
  0
LINE
  8
0
 10
-1.46945
 20
-232.023
 11
-1.59355
 21
-231.926
  0
LINE
  8
0
 10
-1.59355
 20
-231.926
 11
-1.71136
 21
-231.822
  0
LINE
  8
0
 10
-1.71136
 20
-231.822
 11
-1.82242
 21
-231.711
  0
LINE
  8
0
 10
-1.82242
 20
-231.711
 11
-1.92627
 21
-231.594
  0
LINE
  8
0
 10
-1.92627
 20
-231.594
 11
-2.02254
 21
-231.469
  0
LINE
  8
0
 10
-2.02254
 20
-231.469
 11
-2.11081
 21
-231.34
  0
LINE
  8
0
 10
-2.11081
 20
-231.34
 11
-2.19077
 21
-231.204
  0
LINE
  8
0
 10
-2.19077
 20
-231.204
 11
-2.26205
 21
-231.064
  0
LINE
  8
0
 10
-2.26205
 20
-231.064
 11
-2.32443
 21
-230.92
  0
LINE
  8
0
 10
-2.32443
 20
-230.92
 11
-2.37764
 21
-230.773
  0
LINE
  8
0
 10
-2.37764
 20
-230.773
 11
-2.42145
 21
-230.622
  0
LINE
  8
0
 10
-2.42145
 20
-230.622
 11
-2.4557
 21
-230.468
  0
LINE
  8
0
 10
-2.4557
 20
-230.468
 11
-2.48029
 21
-230.313
  0
LINE
  8
0
 10
-2.48029
 20
-230.313
 11
-2.49506
 21
-230.157
  0
LINE
  8
0
 10
-2.49506
 20
-230.157
 11
-2.5
 21
-230
  0
LINE
  8
0
 10
-2.5
 20
-230
 11
-2.49506
 21
-229.843
  0
LINE
  8
0
 10
-2.49506
 20
-229.843
 11
-2.48029
 21
-229.687
  0
LINE
  8
0
 10
-2.48029
 20
-229.687
 11
-2.4557
 21
-229.532
  0
LINE
  8
0
 10
-2.4557
 20
-229.532
 11
-2.42145
 21
-229.378
  0
LINE
  8
0
 10
-2.42145
 20
-229.378
 11
-2.37764
 21
-229.227
  0
LINE
  8
0
 10
-2.37764
 20
-229.227
 11
-2.32443
 21
-229.08
  0
LINE
  8
0
 10
-2.32443
 20
-229.08
 11
-2.26205
 21
-228.936
  0
LINE
  8
0
 10
-2.26205
 20
-228.936
 11
-2.19077
 21
-228.796
  0
LINE
  8
0
 10
-2.19077
 20
-228.796
 11
-2.11081
 21
-228.66
  0
LINE
  8
0
 10
-2.11081
 20
-228.66
 11
-2.02254
 21
-228.531
  0
LINE
  8
0
 10
-2.02254
 20
-228.531
 11
-1.92627
 21
-228.406
  0
LINE
  8
0
 10
-1.92627
 20
-228.406
 11
-1.82242
 21
-228.289
  0
LINE
  8
0
 10
-1.82242
 20
-228.289
 11
-1.71136
 21
-228.178
  0
LINE
  8
0
 10
-1.71136
 20
-228.178
 11
-1.59355
 21
-228.074
  0
LINE
  8
0
 10
-1.59355
 20
-228.074
 11
-1.46945
 21
-227.977
  0
LINE
  8
0
 10
-1.46945
 20
-227.977
 11
-1.33955
 21
-227.889
  0
LINE
  8
0
 10
-1.33955
 20
-227.889
 11
-1.20438
 21
-227.809
  0
LINE
  8
0
 10
-1.20438
 20
-227.809
 11
-1.06444
 21
-227.738
  0
LINE
  8
0
 10
-1.06444
 20
-227.738
 11
-0.920303
 21
-227.676
  0
LINE
  8
0
 10
-0.920303
 20
-227.676
 11
-0.772537
 21
-227.622
  0
LINE
  8
0
 10
-0.772537
 20
-227.622
 11
-0.621719
 21
-227.579
  0
LINE
  8
0
 10
-0.621719
 20
-227.579
 11
-0.468445
 21
-227.544
  0
LINE
  8
0
 10
-0.468445
 20
-227.544
 11
-0.313324
 21
-227.52
  0
LINE
  8
0
 10
-0.313324
 20
-227.52
 11
-0.156967
 21
-227.505
  0
LINE
  8
0
 10
-0.156967
 20
-227.505
 11
0
 21
-227.5
  0
LINE
  8
0
 10
0
 20
-227.5
 11
0.156967
 21
-227.505
  0
LINE
  8
0
 10
0.156967
 20
-227.505
 11
0.313324
 21
-227.52
  0
LINE
  8
0
 10
0.313324
 20
-227.52
 11
0.468445
 21
-227.544
  0
LINE
  8
0
 10
0.468445
 20
-227.544
 11
0.621719
 21
-227.579
  0
LINE
  8
0
 10
0.621719
 20
-227.579
 11
0.772537
 21
-227.622
  0
LINE
  8
0
 10
0.772537
 20
-227.622
 11
0.920303
 21
-227.676
  0
LINE
  8
0
 10
0.920303
 20
-227.676
 11
1.06444
 21
-227.738
  0
LINE
  8
0
 10
1.06444
 20
-227.738
 11
1.20438
 21
-227.809
  0
LINE
  8
0
 10
1.20438
 20
-227.809
 11
1.33955
 21
-227.889
  0
LINE
  8
0
 10
1.33955
 20
-227.889
 11
1.46945
 21
-227.977
  0
LINE
  8
0
 10
1.46945
 20
-227.977
 11
1.59355
 21
-228.074
  0
LINE
  8
0
 10
1.59355
 20
-228.074
 11
1.71136
 21
-228.178
  0
LINE
  8
0
 10
1.71136
 20
-228.178
 11
1.82242
 21
-228.289
  0
LINE
  8
0
 10
1.82242
 20
-228.289
 11
1.92627
 21
-228.406
  0
LINE
  8
0
 10
1.92627
 20
-228.406
 11
2.02254
 21
-228.531
  0
LINE
  8
0
 10
2.02254
 20
-228.531
 11
2.11081
 21
-228.66
  0
LINE
  8
0
 10
2.11081
 20
-228.66
 11
2.19077
 21
-228.796
  0
LINE
  8
0
 10
2.19077
 20
-228.796
 11
2.26205
 21
-228.936
  0
LINE
  8
0
 10
2.26205
 20
-228.936
 11
2.32443
 21
-229.08
  0
LINE
  8
0
 10
2.32443
 20
-229.08
 11
2.37764
 21
-229.227
  0
LINE
  8
0
 10
2.37764
 20
-229.227
 11
2.42145
 21
-229.378
  0
LINE
  8
0
 10
2.42145
 20
-229.378
 11
2.4557
 21
-229.532
  0
LINE
  8
0
 10
2.4557
 20
-229.532
 11
2.48029
 21
-229.687
  0
LINE
  8
0
 10
2.48029
 20
-229.687
 11
2.49506
 21
-229.843
  0
LINE
  8
0
 10
2.49506
 20
-229.843
 11
2.5
 21
-230
  0
LINE
  8
0
 10
2.5
 20
-230
 11
2.49506
 21
-230.157
  0
LINE
  8
0
 10
2.49506
 20
-230.157
 11
2.48029
 21
-230.313
  0
LINE
  8
0
 10
2.48029
 20
-230.313
 11
2.4557
 21
-230.468
  0
LINE
  8
0
 10
2.4557
 20
-230.468
 11
2.42145
 21
-230.622
  0
LINE
  8
0
 10
2.42145
 20
-230.622
 11
2.37764
 21
-230.773
  0
LINE
  8
0
 10
2.37764
 20
-230.773
 11
2.32443
 21
-230.92
  0
LINE
  8
0
 10
2.32443
 20
-230.92
 11
2.26205
 21
-231.064
  0
LINE
  8
0
 10
2.26205
 20
-231.064
 11
2.19077
 21
-231.204
  0
LINE
  8
0
 10
2.19077
 20
-231.204
 11
2.11081
 21
-231.34
  0
LINE
  8
0
 10
2.11081
 20
-231.34
 11
2.02254
 21
-231.469
  0
LINE
  8
0
 10
2.02254
 20
-231.469
 11
1.92627
 21
-231.594
  0
LINE
  8
0
 10
1.92627
 20
-231.594
 11
1.82242
 21
-231.711
  0
LINE
  8
0
 10
1.82242
 20
-231.711
 11
1.71136
 21
-231.822
  0
LINE
  8
0
 10
1.71136
 20
-231.822
 11
1.59355
 21
-231.926
  0
LINE
  8
0
 10
1.59355
 20
-231.926
 11
1.46945
 21
-232.023
  0
LINE
  8
0
 10
1.46945
 20
-232.023
 11
1.33955
 21
-232.111
  0
LINE
  8
0
 10
1.33955
 20
-232.111
 11
1.20438
 21
-232.191
  0
LINE
  8
0
 10
1.20438
 20
-232.191
 11
1.06444
 21
-232.262
  0
LINE
  8
0
 10
1.06444
 20
-232.262
 11
0.920303
 21
-232.324
  0
LINE
  8
0
 10
0.920303
 20
-232.324
 11
0.772537
 21
-232.378
  0
LINE
  8
0
 10
0.772537
 20
-232.378
 11
0.621719
 21
-232.421
  0
LINE
  8
0
 10
0.621719
 20
-232.421
 11
0.468445
 21
-232.456
  0
LINE
  8
0
 10
0.468445
 20
-232.456
 11
0.313324
 21
-232.48
  0
LINE
  8
0
 10
0.313324
 20
-232.48
 11
0.156967
 21
-232.495
  0
LINE
  8
0
 10
0.156967
 20
-232.495
 11
0
 21
-232.5
  0
LINE
  8
0
 10
0
 20
-232.5
 11
-0.156967
 21
-232.495
  0
ENDSEC
  0
SECTION
  2
OBJECTS
  0
DICTIONARY
  0
ENDSEC
  0
EOF
